<?xml version="1.0" standalone="no"?>
<!DOCTYPE svg PUBLIC "-//W3C//DTD SVG 1.1//EN" "http://www.w3.org/Graphics/SVG/1.1/DTD/svg11.dtd" >
<svg xmlns="http://www.w3.org/2000/svg" xmlns:xlink="http://www.w3.org/1999/xlink" version="1.1">
<metadata>
Created by FontForge 20161013 at Fri Oct  8 20:14:55 1999
 By ,,,
Copyright (c) 1989, 1992, 1996, 1998, 1999 Adobe Systems Incorporated.  All Rights Reserved.Adobe Garamond is a registered trademark of Adobe Systems Incorporated.
</metadata>
<defs>
<font id="AGaramond-SemiboldItalic" horiz-adv-x="510" >
  <font-face 
    font-family="AGaramond"
    font-weight="600"
    font-style="italic"
    font-stretch="normal"
    units-per-em="1000"
    panose-1="2 2 7 0 0 0 0 0 0 0"
    ascent="714"
    descent="-286"
    x-height="404"
    cap-height="663"
    bbox="-154 -286 1176 866"
    underline-thickness="50"
    underline-position="-200"
    slope="-18.5"
    unicode-range="U+0020-FB02"
  />
<missing-glyph horiz-adv-x="255" 
 />
    <glyph glyph-name=".notdef" horiz-adv-x="255" 
 />
    <glyph glyph-name=".null" horiz-adv-x="0" 
 />
    <glyph glyph-name="nonmarkingreturn" horiz-adv-x="333" 
 />
    <glyph glyph-name="space" unicode=" " horiz-adv-x="255" 
 />
    <glyph glyph-name="space" unicode="&#xa0;" horiz-adv-x="255" 
 />
    <glyph glyph-name="exclam" unicode="!" horiz-adv-x="250" 
d="M132 206l61 302q18 87 23 102q8 21 23.5 28.5t44.5 7.5q31 0 44 -10t8 -28q-1 -3 -41 -98l-129 -304q-6 -6 -17 -6t-17 6zM97 -14q-26 0 -41 15.5t-15 42.5q0 32 20.5 55t51.5 23q25 0 39.5 -16.5t14.5 -43.5q0 -33 -20.5 -54.5t-49.5 -21.5z" />
    <glyph glyph-name="quotedbl" unicode="&#x22;" horiz-adv-x="430" 
d="M215 440l18 182q3 35 8 48q4 19 16.5 24.5t39.5 5.5t38.5 -7t7.5 -25q-2 -11 -18 -46l-80 -182q-6 -6 -16 -6t-14 6zM393 440l18 182q3 35 8 48q4 19 16.5 24.5t39.5 5.5t38.5 -7t7.5 -25q-2 -11 -18 -46l-80 -182q-6 -6 -15.5 -6t-14.5 6z" />
    <glyph glyph-name="numbersign" unicode="#" 
d="M232 244h106l67 158h-106zM322 456h106l71 168h52l-72 -168h103l-17 -54h-109l-67 -158h99l-19 -54h-103l-80 -187h-51l80 187h-106l-80 -187h-51l80 187h-106l19 54h110l67 158h-107l20 54h110l71 168h52z" />
    <glyph glyph-name="dollar" unicode="$" 
d="M312 272l-70 -234h8q56 2 92 34t36 82q0 44 -16.5 70t-49.5 48zM308 394l60 200q-52 -1 -85 -32.5t-33 -75.5q0 -56 58 -92zM158 -94l28 98q-54 7 -93 27t-51 39q-13 46 8 138q4 4 14 4t14 -4q3 -57 35 -103t87 -59l76 248q-55 34 -84.5 69.5t-29.5 84.5q0 84 61 133
t157 51l24 78q8 8 22 8t22 -8l-24 -80q49 -4 118 -34q4 -56 -16 -126q-4 -4 -14 -4t-14 4q0 45 -21.5 78.5t-66.5 43.5l-66 -220q63 -35 97.5 -75.5t34.5 -102.5q0 -88 -66.5 -140t-171.5 -54h-8l-30 -94q-8 -6 -23 -6t-19 6z" />
    <glyph glyph-name="percent" unicode="%" horiz-adv-x="864" 
d="M728 376q60 0 91 -36.5t31 -101.5q0 -90 -60.5 -171t-145.5 -81q-61 0 -92.5 36.5t-31.5 97.5q0 95 61 175.5t147 80.5zM730 340q-37 0 -70 -50q-26 -40 -44 -101.5t-18 -100.5q0 -66 44 -66q37 0 70 52q25 41 43.5 104t18.5 100q0 62 -44 62zM342 640q60 0 91 -36.5
t31 -101.5q0 -90 -60.5 -171t-145.5 -81q-61 0 -92.5 36.5t-31.5 97.5q0 95 61 175.5t147 80.5zM344 604q-37 0 -70 -50q-26 -40 -44 -101.5t-18 -100.5q0 -66 44 -66q37 0 70 52q25 41 43.5 104t18.5 100q0 62 -44 62zM240 -40q-13 -1 -22.5 5.5t-11.5 18.5q51 60 269 340
t259 330q11 2 22.5 -5.5t11.5 -18.5q-51 -60 -269 -340t-259 -330z" />
    <glyph glyph-name="ampersand" unicode="&#x26;" horiz-adv-x="788" 
d="M334 482q21 0 36 -8t19.5 -15.5t10.5 -20.5q31 25 68.5 64.5t57.5 67.5q34 45 34 80q0 17 -11 29q-11 14 -11 29q0 24 15 38t36 14q23 0 39 -16.5t16 -47.5q0 -77 -132 -206q-104 -101 -334 -274q6 -64 53 -105t111 -41q65 0 125 34.5t103 103.5q52 82 52 178
q-6 9 -23 16.5t-35 7.5q-20 0 -39 -16t-19 -36q0 -8 12 -36q8 -20 8 -28q0 -13 -10.5 -23.5t-30.5 -10.5q-19 0 -32 13t-13 35q0 56 70 116q26 22 54 32t44 10q26 0 51 -12t39.5 -24.5t42.5 -40.5q20 -20 26 -24.5t15 -4.5q18 0 18 26q0 7 -6 28q-4 12 -4 20q0 10 9.5 20
t24.5 10q23 0 35.5 -18t12.5 -46q0 -27 -23 -55q-10 -8 -24 -11q-49 -9 -85 -32q-13 -9 -23 4q-23 32 -63 62q0 -50 -2 -70q0 -33 -24 -90.5t-74 -111.5q-53 -56 -119 -83t-131 -27q-109 0 -162.5 58t-53.5 142q0 123 89 213q32 33 68 53.5t55.5 25t33.5 4.5zM320 398
q0 15 -9.5 24.5t-24.5 9.5q-13 0 -32.5 -13t-37.5 -39q-33 -50 -40 -122q125 101 138 114q6 6 6 26z" />
    <glyph glyph-name="quotesingle" unicode="'" horiz-adv-x="242" 
d="M210 440l18 182q3 35 8 48q4 19 16.5 24.5t39.5 5.5t38.5 -7t7.5 -25q-2 -11 -18 -46l-80 -182q-6 -6 -16 -6t-14 6z" />
    <glyph glyph-name="parenleft" unicode="(" horiz-adv-x="330" 
d="M94 150q0 119 48 228.5t134 197.5q76 76 180 128q20 -3 16 -18q-100 -63 -174 -170q-132 -201 -132 -400q0 -166 60 -264q0 -6 -5.5 -11t-14.5 -5q-112 112 -112 314z" />
    <glyph glyph-name="parenright" unicode=")" horiz-adv-x="330" 
d="M327 390q0 -119 -48 -228.5t-134 -197.5q-76 -76 -180 -128q-20 3 -16 18q100 63 174 170q132 201 132 400q0 166 -60 264q0 6 5.5 11t14.5 5q112 -112 112 -314z" />
    <glyph glyph-name="asterisk" unicode="*" horiz-adv-x="400" 
d="M376 671l-19 -126l135 28q6 -2 8 -12t-3 -15l-129 -51l90 -102q2 -8 -4.5 -16t-15.5 -7l-103 89l-44 -117q-6 -4 -16 -2t-13 9l23 124l-132 -32q-8 4 -10.5 14t3.5 16l127 48l-90 105q-2 8 4.5 15.5t13.5 5.5l106 -88l42 118q5 5 14 3.5t13 -7.5z" />
    <glyph glyph-name="plus" unicode="+" 
d="M304 0h-75v174h-155v63h155v157h75v-157h155v-63h-155v-174z" />
    <glyph glyph-name="comma" unicode="," horiz-adv-x="255" 
d="M176 48q0 -55 -50.5 -99t-123.5 -63q-8 3 -11 12t1 16q38 14 68 41.5t30 60.5q0 31 -32 44q-18 7 -18 30q0 21 16.5 36.5t39.5 15.5q33 0 56.5 -26.5t23.5 -67.5z" />
    <glyph glyph-name="hyphen" unicode="-" horiz-adv-x="320" 
d="M66 228l238 22q9 -9 9 -33q0 -20 -9 -32l-238 -22q-9 9 -9 32q0 18 9 33z" />
    <glyph glyph-name="hyphen" unicode="&#xad;" horiz-adv-x="320" 
d="M66 228l238 22q9 -9 9 -33q0 -20 -9 -32l-238 -22q-9 9 -9 32q0 18 9 33z" />
    <glyph glyph-name="period" unicode="." horiz-adv-x="255" 
d="M112 122q25 0 39.5 -16.5t14.5 -43.5q0 -33 -20.5 -54.5t-49.5 -21.5q-26 0 -41 15.5t-15 42.5q0 32 20.5 55t51.5 23z" />
    <glyph glyph-name="slash" unicode="/" horiz-adv-x="270" 
d="M377 676l-308 -692h-78l308 692h78z" />
    <glyph glyph-name="zero" unicode="0" 
d="M228 -14q-46 0 -78.5 17t-49 46.5t-23.5 61.5t-7 69q0 90 37 188.5t95 165.5q92 106 194 106q46 0 78 -17.5t48 -47.5t23 -62.5t7 -70.5q0 -85 -38 -185.5t-96 -170.5q-83 -100 -190 -100zM397 602q-67 0 -147 -180q-35 -72 -57.5 -158.5t-22.5 -147.5q0 -92 61 -92
q68 0 133 154q37 82 63.5 173.5t26.5 154.5q0 96 -57 96z" />
    <glyph glyph-name="one" unicode="1" 
d="M344 32l32 -4q6 -5 5 -16t-7 -16q-104 4 -150 4q-44 0 -136 -4q-7 6 -6.5 16.5t8.5 15.5l30 4q43 6 57.5 22t32.5 76l100 326q16 56 16 72q0 21 -32 24l-44 6q-6 4 -5.5 14.5t7.5 13.5q56 8 122 26q19 5 48.5 16t35.5 12q11 0 14 -8q-26 -66 -42 -118l-120 -388
q-17 -59 -11 -74t45 -20z" />
    <glyph glyph-name="two" unicode="2" 
d="M260 0h-156q-78 0 -114 -3q-7 9 -4 19q73 48 200 152q36 28 59.5 48t60.5 55.5t59.5 64t39.5 64t17 66.5q0 55 -27.5 83.5t-76.5 28.5q-39 0 -77 -25.5t-65 -66.5q-9 -3 -18 2.5t-8 15.5q34 63 93 99.5t125 36.5q79 0 125.5 -41.5t46.5 -114.5q0 -31 -12.5 -62t-28.5 -53
t-47 -50.5t-50 -43t-56 -41.5l-72 -54q-104 -76 -104 -87q0 -9 32 -9h116q59 0 78.5 8.5t49.5 47.5q7 2 15 -0.5t11 -9.5q-11 -35 -31 -76.5t-35 -56.5q-48 2 -72 2q-24 1 -74 1z" />
    <glyph glyph-name="three" unicode="3" 
d="M488 242q0 -66 -44 -127t-106 -99q-113 -72 -242 -72q-50 0 -80 16.5t-30 47.5q0 21 14.5 35.5t35.5 14.5q7 0 14 -2t11 -5t9.5 -8.5t8 -8.5t7.5 -9.5t6 -8.5q21 -30 58 -30q57 0 118 42q45 33 71.5 84.5t26.5 109.5q0 51 -27 81.5t-77 30.5q-54 0 -106 -48
q-15 2 -20.5 18t4.5 28q128 49 176 78q86 52 86 108q0 34 -21.5 52t-54.5 18q-36 0 -72.5 -23t-65.5 -63q-24 -3 -24 20q32 53 89 85.5t121 32.5q59 0 97.5 -29t38.5 -79q0 -81 -146 -136q-11 -5 -8 -9.5t14 -6.5q48 -7 83 -43t35 -95z" />
    <glyph glyph-name="four" unicode="4" 
d="M407 30l22 -2q6 -5 4 -17t-8 -15q-92 4 -130 4q-46 0 -134 -4q-6 6 -5 16.5t7 15.5l38 2q38 4 51 19t27 65l16 52q4 15 1 18.5t-21 3.5h-230q-13 5 -10 24q0 4 18 22l460 458q14 14 28 14h28q15 0 12 -10q0 -4 -10 -14l-438 -428q-9 -17 22 -18h136q17 0 22.5 3.5
t9.5 16.5l50 170q7 18 26 28q48 24 76 24q16 0 10 -24l-60 -196q-5 -14 -2.5 -18t16.5 -4h64q7 -8 3 -25t-15 -23h-62q-17 0 -22.5 -4t-9.5 -20l-18 -50q-15 -50 -10 -65t38 -19z" />
    <glyph glyph-name="five" unicode="5" 
d="M282 620l262 34q12 0 12 -12q-18 -50 -56 -81l-224 -30q-20 -2 -28 -6t-14 -17l-18 -42q-8 -19 8 -21q53 -7 94.5 -20.5t79 -37.5t57.5 -64t19 -95q-1 -78 -56.5 -141.5t-137.5 -99.5q-117 -51 -264 -55q-11 3 -12.5 16.5t6.5 19.5q89 3 170 31.5t135.5 83.5t54.5 123
q0 148 -224 159q-27 1 -8 33l94 194q6 14 16 19.5t34 8.5z" />
    <glyph glyph-name="six" unicode="6" 
d="M260 -14q-95 0 -145.5 54t-50.5 147q0 99 59 202.5t157 174.5q83 60 181 92.5t177 35.5q7 -1 8 -12.5t-4 -15.5q-157 -31 -274 -122q-87 -69 -140.5 -177t-53.5 -207q0 -134 90 -134q61 0 96.5 66.5t35.5 133.5q0 44 -17.5 74.5t-54.5 33.5q-23 3 -48 -4q-13 13 -2 24
q45 34 92 34q65 0 104.5 -42t39.5 -118q0 -97 -73 -168.5t-177 -71.5z" />
    <glyph glyph-name="seven" unicode="7" 
d="M308 626h190q114 0 128 2q10 -3 6 -14q-62 -65 -136 -166l-388 -512q-14 -3 -25.5 6t-10.5 22l396 522q26 35 26 47q0 9 -28 9h-188q-49 0 -71 -9t-45 -41q-4 -5 -14.5 -1t-11.5 11q34 62 58 126q24 -2 114 -2z" />
    <glyph glyph-name="eight" unicode="8" 
d="M244 -14q-83 0 -138 41t-55 114q0 125 179 193q-68 51 -68 120q0 79 58.5 132.5t140.5 53.5q76 0 125.5 -41t49.5 -111q0 -103 -148 -152q92 -65 92 -154q0 -88 -67.5 -142t-168.5 -54zM150 144q0 -56 30 -88t77 -32q50 0 84.5 34t34.5 92q0 54 -31 90.5t-81 67.5
q-51 -26 -82.5 -68t-31.5 -96zM354 362q37 16 63.5 54.5t26.5 85.5q0 44 -22.5 72t-63.5 28q-44 0 -73 -31t-29 -79q0 -43 24.5 -71t73.5 -59z" />
    <glyph glyph-name="nine" unicode="9" 
d="M8 -60q-7 3 -9 13.5t3 14.5q193 48 305 175q62 70 100.5 163t38.5 174q0 122 -84 122q-56 0 -95 -60.5t-39 -129.5q0 -99 74 -110q12 -2 42 -2q3 -2 4 -8.5t-2 -11.5q-36 -26 -86 -26q-62 0 -100 40.5t-38 107.5q0 91 72.5 164.5t172.5 73.5q91 0 139 -54.5t48 -145.5
q0 -75 -41.5 -159t-108.5 -151q-76 -77 -185.5 -128t-210.5 -62z" />
    <glyph glyph-name="colon" unicode=":" horiz-adv-x="255" 
d="M218 462q25 0 39.5 -16.5t14.5 -43.5q0 -33 -20.5 -54.5t-49.5 -21.5q-26 0 -41 15.5t-15 42.5q0 32 20.5 55t51.5 23zM112 122q25 0 39.5 -16.5t14.5 -43.5q0 -33 -20.5 -54.5t-49.5 -21.5q-26 0 -41 15.5t-15 42.5q0 32 20.5 55t51.5 23z" />
    <glyph glyph-name="semicolon" unicode=";" horiz-adv-x="255" 
d="M176 48q0 -55 -50.5 -99t-123.5 -63q-8 3 -11 12t1 16q38 14 68 41.5t30 60.5q0 31 -32 44q-18 7 -18 30q0 21 16.5 36.5t39.5 15.5q33 0 56.5 -26.5t23.5 -67.5zM218 462q25 0 39.5 -16.5t14.5 -43.5q0 -33 -20.5 -54.5t-49.5 -21.5q-26 0 -41 15.5t-15 42.5
q0 32 20.5 55t51.5 23z" />
    <glyph glyph-name="less" unicode="&#x3c;" 
d="M56 229l389 185v-75l-297 -131v-2l297 -132v-74l-389 184v45z" />
    <glyph glyph-name="equal" unicode="=" 
d="M458 312v-63h-385v63h385zM458 162v-63h-385v63h385z" />
    <glyph glyph-name="greater" unicode="&#x3e;" 
d="M92 414l389 -185v-45l-389 -184v74l297 132v2l-297 131v75z" />
    <glyph glyph-name="question" unicode="?" horiz-adv-x="326" 
d="M262 646q49 0 90.5 -47t41.5 -109q0 -91 -104 -138l-72 -34q-31 -15 -43.5 -29t-12.5 -33q0 -21 6 -48q-3 -4 -10.5 -5.5t-11.5 1.5q-16 20 -26 48.5t-6 53.5q5 62 94 100l68 32q74 34 74 68q0 23 -20 39.5t-46 16.5q-24 0 -48 -8q-28 -8 -30 -8q-12 0 -20 9.5t-8 24.5
q0 26 23 46t61 20zM126 -14q-26 0 -41 15.5t-15 42.5q0 32 20.5 55t51.5 23q25 0 39.5 -16.5t14.5 -43.5q0 -33 -20.5 -54.5t-49.5 -21.5z" />
    <glyph glyph-name="at" unicode="@" horiz-adv-x="774" 
d="M516 637q-138 0 -225 -104t-87 -246q0 -46 13.5 -89.5t43.5 -85t88 -67t136 -25.5q77 0 158 33q13 -7 9 -22q-84 -46 -201 -46q-135 0 -233 80.5t-98 223.5q0 115 56.5 204.5t146 136t193.5 46.5q136 0 214.5 -78.5t78.5 -191.5q0 -100 -68.5 -165t-182.5 -65
q-73 0 -73 28q0 12 7 33l24 54l-2 1q-45 -47 -102 -81.5t-88 -34.5q-21 0 -32.5 13t-11.5 31q0 20 19 63.5t58 91.5q101 125 202 125q28 0 36 -22l24 51q27 9 56 -12q-6 -15 -57 -134t-58 -137t-3.5 -25t19.5 -9q70 -7 128 49t58 141q0 107 -70 171t-176 64zM367 238
q0 -14 6 -14q25 0 80 49q34 31 71 84t46 79q-9 27 -41 27q-28 0 -60 -28q-39 -35 -70.5 -97t-31.5 -100z" />
    <glyph glyph-name="A" unicode="A" horiz-adv-x="608" 
d="M388 247h-131q-22 0 -28 -3.5t-19 -24.5l-69 -111q-32 -52 -32 -62t25 -14l32 -6q6 -5 5 -14.5t-8 -14.5q-63 3 -115 3q-55 0 -104 -3q-7 4 -7 14.5t6 14.5l25 4q30 5 48 18t45 51q115 159 145 203l160 230q58 82 62 107q13 1 27.5 6t24 9.5t23 12.5t15.5 9q16 0 16 -11
q0 -1 -5 -144q-6 -191 -9 -385q-2 -69 6.5 -86t45.5 -21l24 -3q5 -5 3.5 -15t-7.5 -14q-63 3 -130 3q-76 0 -123 -3q-9 4 -9 14.5t6 14.5l27 4q31 5 39 15.5t10 45.5l6 133q1 15 -4.5 19t-25.5 4zM287 292h107q15 0 19 4t5 20l9 169q1 11 1 30v31h-2q-8 -14 -48 -73
l-109 -163q-8 -11 -4.5 -14.5t22.5 -3.5z" />
    <glyph glyph-name="B" unicode="B" horiz-adv-x="612" 
d="M234 620l-32 4q-6 4 -4.5 14.5t9.5 13.5q99 11 197 11q249 0 249 -149q0 -64 -46.5 -102.5t-100.5 -44.5q-23 -3 -23 -9q4 -4 15 -8q43 -15 69.5 -52t27.5 -88q1 -56 -31 -102t-86 -74q-77 -37 -214 -37q-27 0 -67.5 1.5t-54.5 1.5q-70 0 -128 -3q-7 4 -6.5 15t8.5 14
l25 4q34 4 48.5 23t39.5 91l120 385q21 55 18 70.5t-33 20.5zM353 372q72 0 128 40.5t56 114.5q0 43 -29 70t-81 27q-26 0 -34 -5t-16 -29l-60 -190q-5 -18 0.5 -23t35.5 -5zM286 303l-55 -179q-14 -50 0 -69t58 -19q72 0 128 47.5t56 132.5q0 57 -36 88t-93 31
q-33 0 -42 -5t-16 -27z" />
    <glyph glyph-name="C" unicode="C" horiz-adv-x="656" 
d="M575 676q77 0 183 -34q-26 -58 -47 -145q-4 -6 -17.5 -5.5t-14.5 7.5q9 71 -18 104.5t-96 33.5q-131 0 -236 -119q-44 -50 -74.5 -126.5t-30.5 -155.5q0 -108 47.5 -160.5t126.5 -52.5q66 0 115.5 35.5t98.5 104.5q19 11 30 -5q-21 -66 -68 -150q-11 -1 -78 -14
q-75 -10 -100 -10q-134 0 -214.5 68t-79.5 194q0 92 40 173.5t104 138.5q133 118 329 118z" />
    <glyph glyph-name="D" unicode="D" horiz-adv-x="757" 
d="M236 618l-34 6q-6 5 -5 15t7 14q93 10 209 10q163 0 255 -59q108 -72 108 -218q0 -80 -35.5 -154t-97.5 -126q-130 -109 -358 -109q-24 0 -71 1.5t-67 1.5q-59 0 -132 -3q-6 4 -5.5 15t7.5 14l28 4q34 4 48 23t36 91l122 391q16 49 13 63.5t-28 19.5zM374 577l-137 -441
q-15 -50 -2 -72q15 -28 72 -28q108 0 200 67q69 51 108 135t39 158q0 31 -3 56.5t-16.5 59.5t-36.5 57t-67 39.5t-104 15.5q-25 0 -34 -8t-19 -39z" />
    <glyph glyph-name="E" unicode="E" horiz-adv-x="588" 
d="M262 0h-121q-57 0 -136 -3q-7 4 -6.5 14t8.5 15l34 4q35 4 50 23t38 91l116 372q21 65 18 85.5t-39 28.5l-24 6q-6 5 -4 14t10 13q42 -2 66 -2q22 -1 64 -1h204q116 0 138 3q-20 -42 -45 -145q-5 -6 -17 -6.5t-15 6.5q4 31 0.5 53t-19.5 32q-29 18 -95 18h-66
q-22 0 -29 -6t-15 -30l-60 -191q-6 -21 -3.5 -25t23.5 -4h54q55 0 76 9.5t38 43.5l14 27q6 6 18 5t14 -7q-5 -13 -17 -48.5t-19 -53.5q-18 -63 -27 -101q-6 -5 -17.5 -5t-14.5 5l2 26q3 36 -13 45t-68 9h-52q-21 0 -27 -4.5t-12 -23.5l-41 -128q-24 -82 -14 -102
q6 -12 26 -17.5t74 -5.5q80 0 118.5 18t90.5 91q6 5 16.5 3t14.5 -9q-11 -33 -33.5 -79.5t-38.5 -65.5q-64 2 -113 2q-41 1 -124 1z" />
    <glyph glyph-name="F" unicode="F" horiz-adv-x="546" 
d="M13 26l30 4q34 4 48.5 23t37.5 91l116 372q22 65 18.5 86.5t-39.5 28.5l-22 5q-6 4 -4.5 13.5t10.5 13.5q40 -2 61 -2q21 -1 67 -1h195q116 0 138 3q-19 -45 -45 -145q-3 -6 -16 -6.5t-16 6.5q7 70 -18 85q-31 18 -96 18h-63q-19 0 -24.5 -5.5t-13.5 -30.5l-63 -203
q-5 -17 -2.5 -21.5t19.5 -4.5h67q55 0 76 9t39 42l15 28q5 6 17 5t15 -7q-14 -32 -36 -100q-7 -22 -17 -58.5t-12 -43.5q-5 -6 -16.5 -6t-15.5 6l3 31q2 29 -14 39t-66 10h-69q-18 0 -23.5 -4.5t-11.5 -24.5l-42 -138q-22 -65 -19 -87.5t40 -26.5l36 -4q5 -6 3 -15.5
t-9 -13.5q-86 3 -146 3q-57 0 -134 -3q-6 4 -5.5 14.5t7.5 14.5z" />
    <glyph glyph-name="G" unicode="G" horiz-adv-x="719" 
d="M650 181l-27 -87q-12 -42 4 -49q2 -3 0.5 -10t-6.5 -8q-6 -2 -30.5 -9t-34.5 -10q-86 -24 -156 -24q-145 0 -220.5 71.5t-75.5 195.5q0 83 37.5 163.5t104.5 139.5q139 122 347 122q96 0 188 -33q-23 -54 -48 -146q-5 -7 -16.5 -6.5t-14.5 6.5q11 72 -18 106t-103 34
q-138 0 -239 -111q-51 -56 -84 -138t-33 -161q0 -107 53.5 -155.5t133.5 -48.5q44 0 66 15t36 60l26 83q15 47 8 63t-47 21l-36 5q-7 5 -6.5 15t8.5 14q94 -3 150 -3q77 0 114 3q7 -4 6.5 -14t-6.5 -15l-21 -5q-25 -5 -35 -19t-25 -65z" />
    <glyph glyph-name="H" unicode="H" horiz-adv-x="772" 
d="M129 144l116 372q12 36 16 54.5t2.5 33t-11.5 20t-30 7.5l-25 3q-4 6 -2 15.5t8 13.5q72 -3 138 -3q67 0 131 3q6 -4 5.5 -15t-7.5 -14l-28 -4q-34 -4 -49 -23t-37 -91l-38 -120q-7 -22 -1.5 -26.5t39.5 -4.5h206q37 0 45.5 4.5t15.5 26.5l37 120q22 65 18.5 88t-41.5 27
l-25 3q-4 6 -2 15.5t8 13.5q73 -3 139 -3q65 0 131 3q6 -4 5.5 -15t-7.5 -14l-28 -4q-34 -4 -49 -23t-38 -91l-116 -372q-22 -65 -18 -87.5t42 -26.5l29 -4q4 -6 2 -15.5t-7 -13.5q-81 3 -143 3q-66 0 -131 -3q-6 4 -5.5 15t7.5 14l27 3q34 5 48.5 24t37.5 91l47 152
q6 16 0.5 20t-41.5 4h-208q-32 0 -40.5 -4.5t-14.5 -23.5l-47 -148q-12 -36 -16 -54.5t-2.5 -33t11.5 -19.5t30 -7l35 -4q4 -6 2 -15.5t-8 -13.5q-87 3 -148 3q-69 0 -126 -3q-6 4 -5.5 15t7.5 14l23 3q34 5 48.5 24t37.5 91z" />
    <glyph glyph-name="I" unicode="I" horiz-adv-x="357" 
d="M263 30l30 -4q4 -6 2 -15.5t-8 -13.5q-80 3 -143 3q-66 0 -131 -3q-6 4 -5.5 15t7.5 14l28 4q34 4 48.5 23t37.5 91l116 372q12 36 16 54.5t2.5 33t-11.5 19.5t-30 7l-30 4q-4 6 -2 15.5t8 13.5q80 -3 143 -3q67 0 131 3q6 -4 5.5 -15t-7.5 -14l-28 -4q-34 -4 -49 -23
t-37 -91l-116 -372q-12 -36 -16 -54.5t-2.5 -33t11.5 -19.5t30 -7z" />
    <glyph glyph-name="J" unicode="J" horiz-adv-x="361" 
d="M366 516l-134 -433q-30 -102 -67 -162q-74 -123 -216 -123q-30 0 -51.5 9t-21.5 27q0 17 18 39q16 16 29 16q16 0 44 -20q29 -22 43 -22q27 0 60 84q14 33 65 195l121 390q21 65 17.5 88t-41.5 27l-36 4q-4 6 -2 15t8 13q90 -3 150 -3q70 0 125 3q6 -4 5.5 -14.5
t-7.5 -13.5l-22 -3q-34 -5 -49 -24.5t-38 -91.5z" />
    <glyph glyph-name="K" unicode="K" horiz-adv-x="665" 
d="M129 144l116 372q12 36 16 54.5t2.5 33t-11.5 20t-30 7.5l-25 3q-4 6 -2 15.5t8 13.5q72 -3 138 -3q67 0 131 3q6 -4 5.5 -15t-7.5 -14l-28 -4q-34 -4 -49 -23t-37 -91l-42 -130q-5 -16 -2.5 -22.5t14.5 -6.5q17 0 34 7q27 15 88 73l113 105q52 52 56 57q10 10 10 16
q0 9 -22 14l-16 4q-6 6 -4.5 16.5t10.5 13.5q64 -3 122 -3q22 0 61.5 1.5t52.5 1.5q7 -3 7 -14t-7 -15l-19 -4q-43 -9 -65 -17q-62 -21 -183 -130l-98 -87q-24 -22 -24 -32q0 -5 9 -31q8 -20 30.5 -68.5t49.5 -104.5t32 -67q15 -33 29 -46t42 -17l25 -6q6 -5 5 -15t-7 -13
q-76 4 -124 4q-64 0 -127 -3q-6 5 -6 15t6 14l26 4q22 4 25.5 14t-7.5 30q-14 28 -46 100l-40 88q-17 37 -26 49t-20 12q-15 0 -21.5 -9.5t-15.5 -37.5l-41 -132q-12 -36 -16 -54.5t-2.5 -33t11.5 -19.5t30 -7l33 -4q4 -6 2 -15.5t-8 -13.5q-84 3 -146 3q-66 0 -131 -3
q-6 4 -5.5 15t7.5 14l28 4q34 4 48.5 23t37.5 91z" />
    <glyph glyph-name="L" unicode="L" horiz-adv-x="558" 
d="M259 0h-116q-65 0 -129 -3q-6 4 -5.5 15t7.5 14l28 4q34 4 48 23t36 91l118 372q22 65 18 86t-41 27l-26 5q-6 4 -4.5 15t10.5 14q72 -3 135 -3q57 0 135 3q6 -4 5.5 -15t-7.5 -14l-28 -4q-37 -5 -50.5 -23t-35.5 -91l-111 -352q-24 -79 -15 -100q6 -14 25.5 -19.5
t65.5 -5.5q82 0 121.5 18t89.5 91q22 11 32 -6q-11 -33 -33.5 -79t-37.5 -66q-66 2 -114 2q-41 1 -121 1z" />
    <glyph glyph-name="M" unicode="M" horiz-adv-x="875" 
d="M-18 26l25 4q41 3 58 24q26 29 96 218l85 224q36 93 26 114q-6 13 -30 18l-38 6q-5 5 -3 15t11 14q77 -3 132 -3q33 0 87 3q-18 -47 0 -194l12 -106q16 -139 19 -157q42 53 95 125l137 185q78 104 93 147q24 -3 75 -3q53 0 125 3q7 -4 6.5 -15t-7.5 -14l-25 -4
q-41 -7 -53 -23q-21 -28 -44 -112l-89 -333q-25 -97 -20 -112t39 -20l27 -4q6 -6 4.5 -15t-7.5 -14q-80 3 -148 3q-65 0 -128 -3q-6 5 -5.5 15.5t7.5 13.5l28 5q33 4 46 17q17 15 46 110l82 275q21 68 34 117l-2 2q-8 -12 -35 -47t-50 -66l-148 -201q-97 -131 -152 -222
q-7 -5 -17 -4t-14 8q1 51 -12 205q-8 76 -14 165q-3 39 -8.5 97.5t-6.5 69.5h-2q-12 -27 -54 -143l-63 -174q-57 -157 -58 -181q-2 -21 27 -26l45 -7q5 -6 4 -15.5t-8 -13.5q-56 3 -122 3q-58 0 -110 -3q-5 5 -4.5 15.5t6.5 13.5z" />
    <glyph glyph-name="N" unicode="N" horiz-adv-x="730" 
d="M154 242l79 260q31 91 20 109q-6 14 -28 17l-33 8q-6 5 -4 14t10 13q42 -2 57 -2q18 -1 57 -1q63 0 75 2q2 -52 63 -191l75 -175q37 -89 56 -127q6 10 17 48l62 201q30 99 41 159q5 27 -4.5 38t-41.5 15l-26 4q-5 6 -4 15t8 14q61 -3 120 -3q51 0 111 3q5 -5 5.5 -14.5
t-5.5 -14.5l-26 -5q-49 -6 -69 -44q-14 -27 -58 -167l-74 -237q-16 -49 -32.5 -106.5t-22.5 -75.5q-15 -12 -48 -8q-2 5 -10.5 28t-25.5 66.5t-38 91.5l-93 219q-11 25 -34.5 82.5t-30.5 73.5q-5 -8 -27 -83l-69 -227q-30 -95 -42 -159q-5 -27 5 -38t42 -15l25 -4
q5 -6 4 -15t-8 -14q-61 3 -120 3q-51 0 -110 -3q-6 5 -6 14.5t6 14.5l25 5q49 6 69 44q18 34 58 167z" />
    <glyph glyph-name="O" unicode="O" horiz-adv-x="748" 
d="M371 -16q-72 0 -126.5 24t-84 64t-43.5 84.5t-13 91.5q2 95 43.5 184t117.5 153q106 91 246 91q51 0 96 -15.5t83 -47t59.5 -86.5t20.5 -127q-2 -84 -37 -166t-97 -142q-45 -45 -113.5 -76.5t-151.5 -31.5zM517 637q-68 0 -128 -51q-64 -51 -115 -158t-54 -227
q-2 -75 34 -126.5t111 -51.5q88 0 155 75q65 72 98.5 169.5t35.5 197.5q1 82 -36 127t-101 45z" />
    <glyph glyph-name="P" unicode="P" horiz-adv-x="584" 
d="M262 30l34 -4q4 -6 1.5 -15.5t-7.5 -13.5q-79 3 -147 3q-59 0 -130 -3q-8 4 -7.5 15t8.5 14l30 4q34 4 48 22.5t36 91.5l124 395q15 46 12 61.5t-29 19.5l-42 6q-6 5 -4 14t10 12q92 11 178 11q140 0 205 -45q69 -46 69 -135q0 -71 -48.5 -120.5t-120.5 -67.5
q-64 -16 -124 -16q-15 11 -2 26q73 10 126 64.5t53 140.5q0 55 -30.5 84.5t-85.5 29.5q-19 0 -25 -5.5t-13 -28.5l-141 -446q-22 -65 -18.5 -87.5t40.5 -26.5z" />
    <glyph glyph-name="Q" unicode="Q" horiz-adv-x="748" 
d="M511 676q51 0 96 -15.5t83 -47t59.5 -86.5t20.5 -127q-2 -84 -37 -166t-97 -142q-67 -67 -164 -94q2 -8 8 -16q124 -120 216 -148q30 -10 78 -10q26 0 50 8q13 -3 8 -18q-45 -34 -126 -34q-101 0 -190.5 50.5t-157.5 131.5q-20 24 -44 27q-97 10 -154.5 84t-55.5 175
q2 95 43.5 184t117.5 153q106 91 246 91zM517 637q-68 0 -128 -51q-64 -51 -115 -158t-54 -227q-2 -75 34 -126.5t111 -51.5q88 0 155 75q65 72 98.5 169.5t35.5 197.5q1 82 -36 127t-101 45z" />
    <glyph glyph-name="R" unicode="R" horiz-adv-x="602" 
d="M258 30l26 -4q4 -6 2 -15.5t-8 -13.5q-72 3 -133 3q-69 0 -131 -3q-6 4 -5.5 15t7.5 14l26 4q34 4 49.5 23.5t36.5 90.5l118 376q20 62 18.5 80.5t-27.5 22.5l-34 5q-6 6 -4 14.5t10 12.5q69 8 184 8q259 0 259 -167q0 -69 -51.5 -113.5t-114.5 -58.5q-11 -3 -13.5 -9.5
t1.5 -20.5q34 -163 51 -204q12 -31 31.5 -45t53.5 -19q4 -5 3.5 -13t-5.5 -13q-30 -4 -73 -4q-54 0 -77 13q-28 15 -44 65q-17 49 -40 172q-7 33 -16.5 42t-33.5 9q-28 0 -35.5 -4.5t-13.5 -24.5l-39 -124q-22 -65 -18.5 -87t40.5 -27zM350 333q73 0 129 52.5t56 124.5
q2 50 -27 82t-86 32q-27 0 -34.5 -5t-13.5 -26l-68 -223q-8 -28 -2 -32.5t46 -4.5z" />
    <glyph glyph-name="S" unicode="S" horiz-adv-x="498" 
d="M235 -16q-64 0 -114.5 22t-64.5 55q-10 57 4 135q4 5 15 4.5t16 -6.5q11 -63 36 -104q41 -67 123 -67q52 0 92 34t40 95q0 78 -105 155q-99 73 -99 168q0 90 65.5 146.5t163.5 54.5q50 -1 96.5 -15t71.5 -34q-22 -51 -38 -124q-6 -6 -17 -4.5t-15 8.5q7 55 -18.5 92.5
t-92.5 37.5q-56 0 -89 -34t-33 -81q0 -30 19.5 -60.5t36 -44.5t41.5 -32q114 -81 114 -192q0 -92 -67 -150.5t-181 -58.5z" />
    <glyph glyph-name="T" unicode="T" horiz-adv-x="640" 
d="M314 660h378q33 0 48 5t29 19q4 3 13 1.5t12 -5.5q-15 -28 -34 -78.5t-25 -77.5q-5 -8 -17 -8t-16 8q7 71 -15 84t-72 13h-55q-22 0 -28 -5t-14 -31l-137 -441q-12 -36 -16 -54.5t-2.5 -33t11.5 -19.5t30 -7l42 -4q4 -6 2 -15.5t-8 -13.5q-97 3 -155 3q-60 0 -143 -3
q-6 4 -5.5 15t7.5 14l40 5q34 3 48.5 22t37.5 91l138 441q8 25 4.5 30.5t-28.5 5.5h-51q-56 0 -86 -17q-33 -18 -77 -80q-8 -4 -18 -1t-12 11q46 82 75 150q7 10 24 2q-2 -15 12.5 -20.5t62.5 -5.5z" />
    <glyph glyph-name="U" unicode="U" horiz-adv-x="726" 
d="M458 635l-28 -4q-34 -5 -49 -24t-38 -91l-72 -230q-20 -63 -23 -117q0 -140 141 -140q156 0 228 239l48 150q30 102 41 160q5 26 -4.5 37.5t-41.5 15.5l-26 4q-12 17 4 28q62 -3 120 -3q51 0 111 3q6 -5 6 -14t-6 -14l-26 -5q-49 -8 -69 -45q-13 -24 -58 -167l-49 -156
q-48 -151 -115 -209q-36 -33 -89 -51t-106 -18q-106 0 -165.5 43.5t-56.5 132.5q2 48 20 106l78 250q22 65 18 88t-42 28l-25 3q-5 6 -3 15t9 13q74 -3 138 -3q66 0 132 3q5 -4 5 -14.5t-7 -13.5z" />
    <glyph glyph-name="V" unicode="V" horiz-adv-x="636" 
d="M164 631l-24 4q-6 6 -4.5 15t10.5 13q50 -3 112 -3q56 0 124 3q7 -4 6.5 -14.5t-6.5 -13.5l-33 -7q-30 -6 -33 -13q-7 -13 -2 -72q19 -226 35 -393q211 298 285 423q17 28 17 40q0 11 -24 15l-32 7q-5 4 -4 14.5t8 13.5q78 -3 125 -3q54 0 92 3q6 -5 6 -14t-6 -14l-27 -6
q-43 -8 -61 -31q-49 -53 -152 -202l-105 -148q-21 -30 -171 -258q-9 -6 -24 -6q-14 0 -20 6q0 2 -10 136t-36 402q-6 60 -13.5 79.5t-32.5 23.5z" />
    <glyph glyph-name="W" unicode="W" horiz-adv-x="922" 
d="M1104 635l-30 -8q-34 -9 -52 -28t-80 -105q-203 -285 -345 -504q-6 -6 -24 -6q-12 0 -18 6q-13 120 -38 270q-30 -37 -97 -133.5t-91 -136.5q-9 -6 -24 -6q-9 0 -18 6q-2 18 -11.5 87.5t-13.5 97.5q-41 287 -56 379l-2 12q-5 34 -11 46t-24 16l-34 7q-5 5 -3.5 14.5
t8.5 13.5q67 -3 112 -3q48 0 110 3q6 -4 5.5 -14t-8.5 -14l-19 -3l-15 -3q-23 -7 -23 -23q0 -17 7 -64q57 -386 61 -408q108 148 126 174q9 12 10 19t-2 26l-35 215q-5 32 -11.5 44.5t-24.5 16.5l-26 6q-4 7 -2 15.5t9 12.5q64 -3 114 -3q56 0 95 3q7 -4 7 -15t-7 -13
l-30 -7q-21 -4 -25 -13t0 -30q4 -27 12.5 -81t12.5 -81q65 87 124 180q13 20 -10 25l-29 7q-7 18 6 28q59 -3 96 -3q52 0 86 3q6 -6 6 -14.5t-5 -13.5l-19 -4q-29 -6 -50.5 -24t-58.5 -63q-2 -2 -121 -158q-14 -20 -14 -26q0 -4 2 -20q2 -19 16 -108.5t15 -97.5
q74 96 261 388q56 84 56 93t-14 12l-31 8q-9 17 4 28q65 -3 100 -3q52 0 88 3q6 -4 7 -13t-4 -15z" />
    <glyph glyph-name="X" unicode="X" horiz-adv-x="615" 
d="M164 32l32 -6q5 -4 3 -15t-9 -14q-61 3 -128 3q-63 0 -104 -3q-8 5 -8 15.5t8 13.5l25 4q28 4 57.5 21t45 31t44.5 43q54 55 179 191q11 12 3 35q-9 24 -36.5 103.5t-40.5 112.5q-13 35 -24 46.5t-34 15.5l-25 5q-6 6 -4.5 16t9.5 13q46 -3 123 -3q86 0 122 3q8 -5 8 -15
t-8 -14l-30 -6q-29 -3 -33 -11q-7 -9 3 -39q22 -73 60 -171q114 124 161 178q20 23 20 30q0 9 -26 15l-21 4q-6 6 -4.5 15.5t8.5 13.5q53 -3 112 -3q56 0 101 3q7 -3 7 -14t-7 -15l-18 -4q-48 -8 -91 -45q-80 -69 -212 -208q-10 -10 -11 -16t4 -21q33 -100 91 -251
q11 -31 24.5 -43.5t41.5 -15.5l27 -4q6 -5 5 -15t-7 -14q-65 3 -128 3q-75 0 -131 -3q-7 4 -8 14.5t6 14.5l27 4q29 3 34 12q7 12 -5 49q-9 26 -31 90.5t-35 100.5q-101 -114 -180 -212q-13 -16 -13 -25q0 -12 21 -13z" />
    <glyph glyph-name="Y" unicode="Y" horiz-adv-x="588" 
d="M382 32l36 -6q5 -3 3.5 -14t-7.5 -15q-92 3 -148 3q-66 0 -142 -3q-6 4 -5.5 15t7.5 14l38 6q34 2 47.5 20.5t36.5 91.5l16 51q12 40 14 63t-5 63q-3 19 -22.5 114.5t-24.5 122.5q-8 38 -18 52.5t-35 18.5l-26 5q-6 6 -4.5 15.5t9.5 13.5q50 -2 65 -2q20 -1 58 -1
q70 0 122 4q7 -4 7 -14.5t-6 -15.5l-33 -6q-27 -4 -34 -12.5t-3 -31.5q27 -144 52 -262l138 175q49 60 75 100q7 11 8 16t-4 9t-19 7l-25 5q-7 5 -6.5 15t8.5 14q66 -3 111 -3q56 0 99 3q6 -4 5.5 -14.5t-7.5 -14.5l-25 -5q-31 -6 -52.5 -20t-56.5 -53q-46 -50 -180 -216
q-28 -36 -40 -57t-29 -72l-21 -67q-23 -68 -19 -88t42 -24z" />
    <glyph glyph-name="Z" unicode="Z" horiz-adv-x="627" 
d="M243 39h106q118 4 150 20q44 23 94 99q4 5 15.5 2t12.5 -10q-11 -36 -35 -85t-40 -68q-68 2 -102 2q-34 1 -103 1h-246q-75 0 -100 -3q-12 3 -8 19q34 25 134 130l419 444q18 20 15.5 25.5t-26.5 5.5h-142q-67 0 -101 -16q-39 -20 -89 -91q-7 -5 -17.5 -1t-11.5 13
q43 87 69 160q6 6 20 2q2 -18 16 -23t70 -5h284q61 0 100 3q12 -3 7 -19q-36 -25 -206 -207l-307 -326q-42 -44 -42 -58t64 -14z" />
    <glyph glyph-name="bracketleft" unicode="[" horiz-adv-x="330" 
d="M35 -152l264 840q36 1 81 1q76 0 104 -4q2 -5 0.5 -13t-5.5 -12l-88 -11q-25 -3 -31 -10q-18 -18 -60 -154l-136 -434q-42 -136 -37 -152q3 -8 25 -12l77 -11q2 -5 0 -13.5t-7 -11.5q-32 -4 -106 -4q-45 0 -81 1z" />
    <glyph glyph-name="backslash" unicode="\" horiz-adv-x="340" 
d="M164 676l191 -692h-78l-191 692h78z" />
    <glyph glyph-name="bracketright" unicode="]" horiz-adv-x="330" 
d="M384 688l-264 -840q-36 -1 -81 -1q-76 0 -104 4q-2 5 -0.5 13t5.5 12l88 11q24 3 31 10q18 18 60 154l136 434q42 136 37 152q-3 8 -25 12l-77 11q-2 5 0 13.5t7 11.5q32 4 106 4q45 0 81 -1z" />
    <glyph glyph-name="asciicircum" unicode="^" 
d="M491 244h-76l-124 289l-124 -289h-77l171 382h60z" />
    <glyph glyph-name="underscore" unicode="_" horiz-adv-x="500" 
d="M500 -75v-50h-500v50h500z" />
    <glyph glyph-name="grave" unicode="`" horiz-adv-x="380" 
d="M373 441l-132 143q-25 27 -25 38q0 15 23 33q17 14 34 14t31 -30l91 -182q-3 -17 -22 -16z" />
    <glyph glyph-name="a" unicode="a" horiz-adv-x="470" 
d="M383 368l26 56q8 4 20 4q44 0 56 -24q-58 -136 -129 -334q-7 -18 5 -18t40.5 17.5t59.5 47.5q16 0 16 -19q-35 -45 -88 -78.5t-98 -33.5q-16 0 -24.5 10.5t-8.5 21.5q0 12 10 41l36 95h-3q-52 -71 -118 -119.5t-110 -48.5q-23 0 -38.5 17.5t-15.5 42.5q0 34 32 100.5
t85 126.5q56 63 125 99q41 22 78 22q7 0 23 -7q12 -7 21 -19zM313 352q-30 0 -70 -43q-42 -46 -75.5 -118.5t-34.5 -121.5q0 -20 12 -20q22 0 102 80q35 37 66.5 93.5t43.5 94.5q-12 35 -44 35z" />
    <glyph glyph-name="b" unicode="b" horiz-adv-x="487" 
d="M495 313q0 -46 -26 -103t-78 -111q-109 -113 -228 -113q-47 0 -72.5 25.5t-25.5 69.5q0 58 44 174l123 327q14 36 14.5 49.5t-11.5 21.5l-24 16q-4 13 4 18q21 8 70.5 17.5t83.5 10.5q7 -3 7 -10q-8 -21 -25.5 -64t-28.5 -71l-122 -317h2q108 155 199 155
q49 0 71.5 -28.5t22.5 -66.5zM369 360q-21 0 -56.5 -28t-76.5 -80q-39 -49 -59 -98.5t-20 -84.5q0 -22 8.5 -34.5t19.5 -12.5q14 0 38 17t50 46q50 59 88 131.5t38 108.5q0 35 -30 35z" />
    <glyph glyph-name="c" unicode="c" horiz-adv-x="360" 
d="M130 -14q-41 0 -64.5 28.5t-23.5 81.5q0 52 30.5 118.5t82.5 117.5q77 76 159 76q39 0 63 -19t23 -49q0 -26 -19.5 -40.5t-40.5 -14.5q-28 0 -30 28q0 3 -0.5 14t-1.5 15.5t-3.5 12t-7.5 10.5t-12 3q-33 0 -74 -64q-63 -100 -63 -196q0 -60 41 -60q47 0 107 61
q21 0 18 -20q-31 -41 -81.5 -72t-102.5 -31z" />
    <glyph glyph-name="d" unicode="d" horiz-adv-x="499" 
d="M348 408q34 0 52 -28l70 203q12 35 12.5 48.5t-11.5 21.5l-24 16q-7 11 4 18q19 8 68 17.5t82 10.5q8 -4 8 -8q-3 -8 -21.5 -61t-33.5 -93q-26 -69 -80 -231t-66 -201q-13 -46 -14 -49q-4 -17 8 -17q10 0 44 24.5t56 51.5q16 0 16 -18q-24 -41 -80 -84t-108 -43
q-17 0 -26.5 10t-9.5 23q0 18 17 67l33 90h-2q-57 -84 -115 -137t-126 -53q-33 0 -51 22.5t-18 60.5q2 59 38 131t93 122q99 86 185 86zM355 372q-22 0 -57 -32q-66 -60 -118 -148q-58 -97 -58 -141q0 -18 14 -18q16 0 57.5 29t79.5 70q74 82 100 169q8 30 2.5 50.5
t-20.5 20.5z" />
    <glyph glyph-name="e" unicode="e" horiz-adv-x="370" 
d="M136 -14q-46 0 -70 32t-24 77q0 61 37.5 134.5t104.5 124.5q72 54 140 54q34 0 57 -21.5t23 -47.5q0 -102 -247 -169q-9 -25 -9 -65q0 -57 44 -57q49 0 118 63q8 0 13 -6.5t3 -13.5q-76 -105 -190 -105zM297 372q-24 0 -60 -40q-49 -51 -72 -128q73 26 114 68
q17 17 27 39t10 36q0 25 -19 25z" />
    <glyph glyph-name="f" unicode="f" horiz-adv-x="282" 
d="M373 350h-119q-19 -55 -58.5 -197t-52.5 -183q-39 -121 -77 -170q-20 -25 -57 -47t-79 -22q-35 0 -59.5 20t-24.5 47q0 20 11.5 33.5t26.5 13.5q19 0 31 -20q32 -50 58 -50q24 0 49 85q15 52 60 223t72 267h-89q-7 11 -3 25t15 19h89q43 142 86 205q79 116 191 116
q45 0 72.5 -22.5t27.5 -54.5q0 -29 -17.5 -48.5t-36.5 -19.5t-22 20q-5 46 -22 67.5t-35 21.5q-34 0 -67 -67q-33 -66 -77 -218h119q6 -9 3 -23.5t-15 -20.5z" />
    <glyph glyph-name="g" unicode="g" horiz-adv-x="404" 
d="M124 -269q-66 0 -120.5 23.5t-54.5 72.5q0 35 33.5 65.5t67 44.5t70.5 25q-37 24 -37 50q0 23 55 78q-32 8 -56.5 32.5t-24.5 70.5q0 39 22 83.5t61 77.5q63 54 148 54q20 0 42 -9q30 -13 33 -13q20 0 44 6q40 10 46 10q28 0 28 -34q0 -19 -9 -27t-19 -8q-13 0 -30 5
q-20 6 -32 6q-8 0 -8 -7q6 -24 6 -33q0 -63 -38.5 -115t-99.5 -82q-26 -12 -73 -19q-18 -14 -18 -30q0 -9 14 -22.5t38 -26.5q62 -33 95 -54q68 -44 68 -100t-76.5 -90t-174.5 -34zM174 -230q44 0 80 16t36 43q0 33 -48 66q-66 44 -86 44q-9 0 -30.5 -9t-36.5 -20
q-42 -32 -42 -65q0 -34 37.5 -54.5t89.5 -20.5zM308 337q0 15 -8.5 25t-19.5 10q-26 0 -62 -43q-27 -33 -51.5 -86t-24.5 -86q0 -14 8.5 -23.5t21.5 -9.5q27 0 69 57q27 37 47 85t20 71z" />
    <glyph glyph-name="h" unicode="h" horiz-adv-x="493" 
d="M31 20l192 559q10 29 13 40.5t1.5 19.5t-11.5 14l-24 14q-4 13 4 18q19 8 69.5 18.5t82.5 11.5l8 -8q-6 -15 -28 -75t-33 -92l-107 -302l2 -2q62 77 123 122q66 50 110 50q33 0 51.5 -21.5t18.5 -55.5q0 -53 -26.5 -121.5t-61.5 -120.5q-26 -39 -67 -71t-79 -32
q-23 0 -35.5 10.5t-12.5 25.5q0 14 10.5 26t21.5 12q8 0 18 -10q16 -16 25 -16q10 0 27 39q27 62 51.5 140t24.5 114q0 27 -18 27q-17 0 -45 -21q-43 -32 -103 -111q-23 -29 -49 -75t-48.5 -90.5t-28.5 -54.5q-9 -16 -34 -16q-19 0 -34 8t-8 26z" />
    <glyph glyph-name="i" unicode="i" horiz-adv-x="291" 
d="M280 337l-112 -262q-8 -19 3 -19q12 0 45 23t55 46q8 0 13.5 -6t3.5 -14q-25 -38 -86.5 -78.5t-113.5 -40.5q-12 0 -22 11.5t-10 19.5q0 17 9 39l111 263q6 16 -2 16q-9 0 -35.5 -16.5t-50.5 -37.5q-7 0 -11.5 7t-2.5 13q39 45 94 76t90 31q10 0 20.5 -8.5t12.5 -19.5
q3 -13 -11 -43zM272 527q-23 0 -35.5 14t-12.5 35q0 28 18.5 50.5t49.5 22.5q48 0 48 -49q0 -29 -19.5 -51t-48.5 -22z" />
    <glyph glyph-name="j" unicode="j" horiz-adv-x="281" 
d="M-67 -269q-36 0 -60.5 19t-24.5 46q0 21 13.5 33.5t27.5 12.5q16 0 23 -11q34 -57 61 -57q18 0 35 43q17 41 108 323q9 29 24.5 78t22.5 72t7 30q0 14 -9 14q-13 0 -43.5 -24.5t-52.5 -47.5q-8 2 -12.5 9.5t-2.5 14.5q26 37 83.5 79.5t106.5 42.5q15 0 26 -13t11 -27
q0 -32 -48 -180q-75 -229 -89 -264q-43 -113 -108 -160q-45 -33 -99 -33zM259 527q-23 0 -35.5 14t-12.5 35q0 28 18.5 50.5t49.5 22.5q48 0 48 -49q0 -29 -19.5 -51t-48.5 -22z" />
    <glyph glyph-name="k" unicode="k" horiz-adv-x="468" 
d="M421 408q40 0 60 -20t20 -45q0 -49 -61 -99q-53 -44 -131 -60q-8 -3 -4 -18q12 -49 29 -84q14 -29 29 -29q20 0 66 50q6 2 11.5 -2.5t6.5 -11.5q-22 -45 -59.5 -74t-72.5 -29t-58 46q-16 32 -36 104q-6 21 -24 18q-15 -2 -22 -8.5t-16 -28.5l-46 -115q-7 -16 -34 -16
q-19 0 -35 8t-11 26l188 554q13 40 13 53t-13 20l-24 12q-7 11 2 20q52 23 154 36q7 -1 9 -8q-5 -15 -20.5 -57.5t-28.5 -79.5l-100 -291h2q67 69 98 91q54 38 108 38zM201 186q47 0 126 52q68 46 68 85q0 12 -8.5 19.5t-21.5 7.5q-47 0 -122 -77q-44 -46 -52 -73
q-2 -14 10 -14z" />
    <glyph glyph-name="l" unicode="l" horiz-adv-x="260" 
d="M312 555l-162 -473q-14 -40 4 -40q27 0 109 96q21 0 18 -18q-28 -54 -74.5 -94t-113.5 -40q-27 0 -39.5 11t-12.5 25q0 23 18 74l165 483q13 39 11.5 51.5t-15.5 20.5l-23 12q-7 11 2 20q21 8 73 18.5t87 13.5q1 0 3.5 -3t2.5 -5q-48 -136 -53 -152z" />
    <glyph glyph-name="m" unicode="m" horiz-adv-x="756" 
d="M228 408q25 0 33 -17.5t-1 -34.5l-58 -148h2q55 85 115.5 142.5t113.5 57.5q28 0 42 -15.5t12.5 -35t-4.5 -36.5q-9 -32 -45 -117h2q126 204 232 204q31 0 46.5 -16.5t15.5 -41.5q0 -28 -18 -77q-7 -20 -83 -198q-8 -20 3 -20q13 0 41.5 21.5t50.5 46.5q9 1 13.5 -4
t4.5 -14q-24 -45 -80 -82t-112 -37q-13 0 -24.5 10.5t-11.5 21.5q0 12 20 59q49 113 84 202q16 40 16 59q0 18 -15 18q-33 0 -104 -90q-13 -16 -26.5 -37t-23 -36.5t-26.5 -46.5t-23 -43t-26.5 -51.5t-24.5 -47.5q-9 -18 -31 -18q-25 0 -40 7t-10 23q1 4 21.5 57t45.5 117.5
t35 88.5q18 42 18 57q0 20 -15 20q-39 0 -111 -92q-52 -67 -144 -260q-8 -18 -30 -18q-26 0 -40.5 6.5t-9.5 23.5q1 4 50.5 140.5t54.5 152.5q12 34 -7 34q-37 0 -84 -56q-8 0 -13 5.5t-5 12.5q23 45 67.5 74t106.5 29z" />
    <glyph glyph-name="n" unicode="n" horiz-adv-x="524" 
d="M444 408q31 0 45.5 -16t14.5 -40q0 -32 -18 -79q-10 -29 -44 -108.5t-38 -89.5q-8 -20 2 -20q12 0 41.5 22t50.5 46q9 1 13.5 -4t4.5 -14q-28 -46 -82.5 -82.5t-109.5 -36.5q-13 0 -23.5 10.5t-10.5 21.5q0 17 18 59q30 69 84 202q16 40 16 60q0 17 -14 17t-43.5 -24
t-62.5 -65q-68 -88 -152 -265q-8 -16 -34 -16q-19 0 -34.5 8t-9.5 26q2 6 26 71.5t50 136t30 81.5q11 30 -4 30q-30 0 -86 -52q-16 0 -16 16q26 41 75 73t97 32q25 0 32 -18t-2 -34l-61 -155h4q40 56 72.5 95.5t80.5 75.5t88 36z" />
    <glyph glyph-name="o" unicode="o" horiz-adv-x="436" 
d="M177 22q35 0 76 59q29 42 56.5 116.5t27.5 120.5q0 54 -32 54q-30 0 -65 -44q-37 -48 -68 -124.5t-31 -129.5q0 -23 9.5 -37.5t26.5 -14.5zM49 117q2 56 31 119.5t74 104.5q71 67 152 67q63 0 94 -38t29 -98q0 -51 -25.5 -111.5t-72.5 -105.5q-70 -69 -158 -69
q-61 0 -93.5 37t-30.5 94z" />
    <glyph glyph-name="p" unicode="p" horiz-adv-x="476" 
d="M304 449l-22 -59q10 2 32 2q69 0 111.5 -33t42.5 -96q0 -107 -104 -204q-39 -37 -87.5 -55t-88.5 -18q-10 0 -34 8q-10 -2 -16 -18l-43 -127q-15 -41 -12.5 -57.5t28.5 -18.5l42 -4q6 -4 4.5 -14t-10.5 -13q-131 0 -248 -10q-7 4 -8.5 14t4.5 15l28 4q33 5 45.5 20.5
t28.5 61.5l173 488q-38 -7 -100 -40q-9 1 -13 9.5t1 14.5q59 44 128 63l30 75q8 10 38 10q17 0 32 -6t18 -12zM272 350l-98 -273q-7 -20 3 -35q12 -20 30 -20q16 0 42 16t49 49q64 95 64 188q0 38 -20 57.5t-48 19.5q-10 0 -22 -2z" />
    <glyph glyph-name="q" unicode="q" horiz-adv-x="482" 
d="M355 408q22 0 37.5 -15.5t22.5 -36.5q29 45 54 76q11 3 23.5 -0.5t16.5 -13.5q-25 -76 -62 -194l-119 -381q-12 -41 -6.5 -54.5t28.5 -15.5l30 -4q4 -5 3.5 -13.5t-5.5 -11.5q-104 -3 -252 -30q-7 4 -8 14t4 14l40 12q33 8 44.5 22.5t25.5 56.5l110 341h-2
q-125 -188 -241 -188q-33 0 -50.5 26.5t-15.5 56.5q5 91 68 182q64 91 148 131q55 26 106 26zM149 38q32 0 103 74q67 67 96 128q20 41 20 81q0 19 -8.5 35t-20.5 16q-37 0 -96 -76q-46 -59 -79 -129t-33 -106q0 -23 18 -23z" />
    <glyph glyph-name="r" unicode="r" horiz-adv-x="372" 
d="M200 408q65 0 29 -104l-35 -103h6q55 101 89 143q51 64 89 64q22 0 34 -16.5t12 -39.5q0 -26 -16 -53t-38 -27q-14 0 -20 29q-6 30 -20 30q-22 0 -68 -77q-37 -61 -120 -252q-7 -16 -34 -16q-21 0 -36.5 7.5t-9.5 26.5t27.5 80t41 118t31.5 97q8 26 -6 26q-30 0 -78 -56
q-8 0 -12.5 5.5t-3.5 14.5q24 41 60 72t78 31z" />
    <glyph glyph-name="s" unicode="s" horiz-adv-x="290" 
d="M86 -14q-32 0 -56 19.5t-24 45.5q0 18 11 33t27 15q10 0 22 -14q42 -45 76 -45q16 0 28 10.5t12 25.5q0 7 -1.5 14t-5.5 15l-6.5 13t-9 14.5t-8.5 12t-11 13.5l-8 10q-42 54 -42 95q0 57 58 107q44 38 90 38q34 0 57 -21t23 -48q0 -18 -11.5 -30t-20.5 -12q-13 0 -22 12
q-21 25 -36 34t-34 9q-15 0 -24.5 -9.5t-9.5 -21.5q0 -15 7 -28.5t25 -35t19 -22.5q24 -32 34 -55.5t9 -50.5q0 -57 -56 -103q-48 -40 -112 -40z" />
    <glyph glyph-name="t" unicode="t" horiz-adv-x="304" 
d="M363 344h-106l-90 -259q-9 -24 6 -24q12 0 47.5 27t62.5 57q19 -3 16 -22q-34 -51 -96.5 -94t-109.5 -43q-15 0 -25.5 11t-10.5 23q0 19 12 55l92 269h-76q-4 7 -1 17t11 15l84 16l64 97q7 5 24 5q25 0 32 -13l-28 -93h100q8 -9 5 -24t-13 -20z" />
    <glyph glyph-name="u" unicode="u" horiz-adv-x="520" 
d="M80 83l89 227q10 26 -3 26q-27 0 -92 -67q-19 4 -16 20q29 41 84.5 80t105.5 39q15 0 26.5 -11t11.5 -25q0 -11 -6 -27l-103 -257q-11 -28 7 -28q16 0 73 54q90 87 188 290q11 4 30 4q16 0 31 -6t19 -14q-2 -5 -48 -122.5t-70 -182.5q-8 -27 5 -27t43.5 24.5t52.5 48.5
q18 0 18 -18q-23 -41 -84 -83t-110 -42q-17 0 -27 13.5t-3 30.5l62 161h-2q-56 -75 -128.5 -140t-117.5 -65q-20 0 -34 14.5t-14 33.5q0 18 12 49z" />
    <glyph glyph-name="v" unicode="v" horiz-adv-x="442" 
d="M133 -14q-23 0 -38.5 21.5t-15.5 41.5q0 37 20 88l67 170q5 13 4 22.5t-8 9.5q-13 0 -40.5 -21t-48.5 -45q-7 0 -12.5 6t-5.5 12q25 42 76.5 79.5t101.5 37.5q22 0 34.5 -18t7.5 -40q-3 -18 -18 -55l-62 -160q-15 -37 -16 -58q0 -29 28 -29q17 0 45 19.5t55 53.5
q29 37 47.5 84.5t18.5 75.5q2 42 -11 75q2 24 16.5 38t35.5 14q52 -5 50 -69q-1 -56 -52 -141.5t-118 -139.5q-90 -72 -161 -72z" />
    <glyph glyph-name="w" unicode="w" horiz-adv-x="672" 
d="M264 319l-66 -176q-22 -54 -22 -76q0 -18 16 -18q34 0 104 87q65 82 94 201q16 69 66 69q20 0 32 -10.5t12 -25.5q0 -22 -34 -87q-54 -103 -54 -188q0 -44 30 -44q22 0 53.5 24t55.5 64q47 77 47 152q0 38 -8 69q3 21 17 34.5t35 13.5q54 -5 52 -67q-4 -111 -116 -236
q-52 -58 -107 -88.5t-91 -30.5q-21 0 -39.5 18t-18.5 42q0 17 18 85l-2 2q-17 -23 -60 -66q-83 -81 -148 -81q-25 0 -40.5 19t-15.5 37q0 27 20 81l68 180q14 36 -2 36q-14 0 -39.5 -20t-48.5 -44q-7 0 -12.5 5t-5.5 11q27 43 77 80t101 37q17 0 29.5 -13.5t12.5 -26.5
q0 -26 -10 -49z" />
    <glyph glyph-name="x" unicode="x" horiz-adv-x="435" 
d="M239 59l-30 80q-4 -5 -31.5 -37.5t-33.5 -39.5q-64 -76 -113 -76q-18 0 -29 12t-11 32q0 16 10.5 37.5t25.5 33.5q13 10 20 10q9 0 16 -22q9 -24 20 -24q14 0 57 46q20 22 56 68l-37 102q-16 42 -24 42q-17 0 -48 -52q-9 -3 -15.5 1t-8.5 13q14 42 47.5 82.5t66.5 40.5
q30 0 52 -60l34 -93q3 2 10 10.5t19.5 24t22.5 27.5q41 48 68 69.5t54 21.5q21 0 32.5 -15.5t11.5 -36.5q0 -29 -14.5 -50t-29.5 -21q-12 0 -17 20q-9 26 -23 26q-23 0 -85 -73q-15 -18 -35 -43l36 -100q11 -30 17 -40t13 -10q14 0 50 60q4 6 13.5 4.5t12.5 -10.5
q-15 -54 -45 -93.5t-67 -39.5q-25 0 -39.5 18t-28.5 55z" />
    <glyph glyph-name="y" unicode="y" horiz-adv-x="398" 
d="M168 408q38 0 57.5 -47.5t21.5 -128.5q2 -116 -13 -208h4q49 83 88 224q19 71 22 122q2 36 29 36q20 0 37 -10q13 -9 13 -26q0 -14 -10 -52t-39 -107.5t-69 -138.5q-97 -165 -170 -245q-87 -96 -168 -96q-26 0 -45 15.5t-20 37.5q0 25 14.5 40.5t35.5 15.5q18 0 34 -21
q21 -27 35 -27q31 0 56 25q41 41 61 120q23 83 17 220q-3 172 -37 172q-25 0 -61 -77q-8 -4 -16 -1t-10 11q18 57 52 101.5t81 44.5z" />
    <glyph glyph-name="z" unicode="z" horiz-adv-x="423" 
d="M233 400q31 0 72 -15q38 -15 65 -15q30 0 56 34q14 2 24.5 -8.5t7.5 -25.5q-172 -138 -310 -267v-4q44 2 108 -32q51 -27 74 -27q16 0 28 9.5t12 23.5q0 8 -8.5 29t-8.5 29q0 15 7.5 23t17.5 8q24 0 39 -19.5t15 -39.5q0 -44 -52 -89q-42 -36 -96 -36q-38 0 -94 28
q-60 30 -84 30q-38 0 -56 -50q-27 -3 -38.5 8.5t-11.5 25.5q0 21 56 69q31 26 112 94t127 108q10 8 9.5 12t-12.5 8q-67 24 -124 24q-17 0 -25.5 -8.5t-8.5 -17.5q0 -10 10 -23.5t10 -19.5q0 -10 -10 -19t-26 -9q-20 -1 -33 11.5t-13 29.5q0 35 50 79q48 42 111 42z" />
    <glyph glyph-name="braceleft" unicode="{" horiz-adv-x="330" 
d="M284 570q13 41 33.5 67.5t48 38.5t53 15.5t60.5 2.5q3 -3 2 -12t-6 -13q-42 -3 -68 -19t-34.5 -31.5t-16.5 -40.5q-10 -33 -21.5 -104.5t-21.5 -100.5q-16 -46 -41 -72t-69 -35l-1 -4q84 -21 38 -127q-6 -15 -24 -52.5t-31.5 -68.5t-18.5 -48q-4 -19 -6 -39.5t13 -39
t47 -23.5q6 -17 -5 -22q-28 -1 -50.5 4t-43 20t-25 41t3.5 68q9 39 38.5 110t32.5 78q7 20 9.5 33.5t0 28t-17.5 23t-43 10.5q-9 12 5 20q30 2 51.5 10t32.5 21.5t16 23.5t8 24q9 32 24 104t27 109z" />
    <glyph glyph-name="bar" unicode="|" horiz-adv-x="316" 
d="M232 750v-1000h-75v1000h75z" />
    <glyph glyph-name="braceright" unicode="}" horiz-adv-x="330" 
d="M135 -34q-13 -41 -33.5 -67.5t-48 -38.5t-53 -15.5t-60.5 -2.5q-3 3 -2 12t6 13q42 3 68 19t34.5 31.5t16.5 40.5q10 33 21.5 104.5t21.5 100.5q16 46 41 72t69 35l1 4q-84 21 -38 127q6 15 24 52.5t31.5 68.5t18.5 48q4 19 6 39.5t-13 39t-47 23.5q-6 17 5 22
q28 1 50.5 -4t43 -20t25 -41t-3.5 -68q-9 -39 -38.5 -110t-32.5 -78q-7 -20 -9.5 -33.5t0 -28t17.5 -23t43 -10.5q9 -12 -5 -20q-30 -2 -51.5 -10t-32.5 -21.5t-16 -23.5t-8 -24q-9 -32 -24 -104t-27 -109z" />
    <glyph glyph-name="asciitilde" unicode="~" 
d="M189 237h140q59 0 80 21q23 21 34 48q24 4 36 -13q-9 -23 -27 -53t-32 -43q-23 -23 -73 -23h-134q-59 0 -87 -25q-24 -21 -40 -51q-24 -5 -33 14q26 73 54 98q15 17 33 22t49 5z" />
    <glyph glyph-name="exclamdown" unicode="&#xa1;" horiz-adv-x="250" 
d="M158 174l-61 -302q-18 -87 -23 -102q-8 -21 -23.5 -28.5t-44.5 -7.5q-31 0 -44 10t-8 28q1 3 41 98l129 304q6 6 17 6t17 -6zM193 394q26 0 41 -15.5t15 -42.5q0 -32 -20.5 -55t-51.5 -23q-25 0 -39.5 16.5t-14.5 43.5q0 33 20.5 54.5t49.5 21.5z" />
    <glyph glyph-name="cent" unicode="&#xa2;" 
d="M286 174l98 314q-72 -4 -118 -62.5t-46 -129.5q0 -94 66 -122zM234 8l32 102q-76 10 -113 57.5t-37 110.5q0 108 80.5 175.5t191.5 72.5q6 0 8 2l26 82q8 4 22 4t22 -4l-26 -84q48 -5 92 -24q11 -13 6 -36q-2 -16 -12.5 -33t-21.5 -17q-6 0 -8 4q-44 55 -70 62l-100 -320
q6 -2 20 -2q31 0 65 13.5t57 34.5q7 0 12.5 -6t3.5 -12q-24 -34 -70 -58.5t-106 -25.5l-30 -98q-8 -9 -23 -8.5t-21 8.5z" />
    <glyph glyph-name="sterling" unicode="&#xa3;" 
d="M190 94v-2q15 0 42 -5q31 -7 96 -43q40 -22 66 -22q10 0 18 6t8 16q0 5 -1.5 20.5t-1.5 27.5q0 16 8.5 26t22.5 10q18 0 31.5 -15t12.5 -38q0 -40 -46.5 -73.5t-115.5 -33.5q-42 0 -110 32q-86 43 -100 48q-13 -2 -22.5 -11t-9.5 -21q0 -11 -20 -20.5t-42 -9.5
q-36 0 -36 24q0 27 34 50.5t86 29.5q27 6 49.5 30t33.5 60q16 49 20 98h-109q-6 9 -4 21.5t10 18.5h107q11 123 44 189q66 133 191 133q41 0 73.5 -16.5t32.5 -55.5q0 -21 -14 -37.5t-26 -16.5t-22 20q-33 68 -75 68q-23 -2 -42 -25t-29 -65q-15 -62 -26 -194h136
q6 -9 3.5 -21.5t-11.5 -18.5h-132q-14 -72 -50 -118q-26 -34 -80 -66z" />
    <glyph glyph-name="currency" unicode="&#xa4;" 
d="M300 469q-59 0 -102 -45.5t-43 -108.5q0 -65 43.5 -110.5t101.5 -45.5t101.5 46t43.5 110q0 63 -43.5 108.5t-101.5 45.5zM300 528q70 0 125 -40l41 51q18 -5 32.5 -19t16.5 -29l-45 -45q46 -56 46 -132t-46 -132l45 -45q-2 -15 -16.5 -29t-32.5 -19l-41 51
q-55 -40 -125 -40t-125 40l-41 -51q-18 5 -32.5 19t-16.5 29l45 45q-46 56 -46 132t46 132l-45 45q2 15 16.5 29t32.5 19l41 -51q55 40 125 40z" />
    <glyph glyph-name="yen" unicode="&#xa5;" 
d="M239 324h-122q-5 7 -2 19.5t12 18.5h106l-27 156q-8 45 -17.5 59.5t-34.5 21.5l-18 5q-5 4 -3.5 13.5t7.5 12.5q38 -2 114 -2t108 2q8 -3 8 -13t-8 -13l-36 -8q-19 -5 -25 -12.5t-3 -25.5q11 -64 17 -118q13 -102 16 -110q3 2 11 12.5t18 23.5t15 18l85 112q55 72 52 88
q-3 9 -20 13l-24 7q-6 5 -5 14t7 12q46 -2 108 -2q54 0 82 2q6 -5 7 -13t-5 -13l-28 -7q-21 -5 -40.5 -19t-29.5 -24.5t-33 -38.5l-128 -153h132q5 -10 2 -22t-12 -16h-150q-26 -31 -36 -70l-4 -10h158q5 -7 2 -19.5t-12 -18.5h-159l-31 -100q-14 -40 -8 -56t44 -20l30 -4
q3 -4 1.5 -14t-7.5 -16q-96 4 -136 4q-48 0 -128 -4q-6 6 -4.5 16.5t8.5 13.5l28 4q37 4 49 17.5t27 60.5l30 98h-146q-3 7 0 19.5t10 18.5h147q7 26 5 44z" />
    <glyph glyph-name="brokenbar" unicode="&#xa6;" horiz-adv-x="316" 
d="M232 675v-350h-75v350h75zM232 175v-350h-75v350h75z" />
    <glyph glyph-name="section" unicode="&#xa7;" horiz-adv-x="500" 
d="M135 -128q-48 0 -76 25t-28 61q0 17 11 25t23 5q11 -2 33 -21.5t33 -24.5q28 -14 48 -14q30 0 53 17.5t23 50.5q0 34 -16.5 72.5t-55.5 107.5q-60 107 -60 184q0 73 53.5 147t132.5 125q82 54 144 54q39 0 60.5 -24.5t21.5 -49.5q0 -22 -11.5 -34t-24.5 -12q-12 0 -22 20
q-28 52 -72 52q-30 0 -50.5 -19.5t-21.5 -52.5q-3 -55 60 -160q74 -125 74 -210q-3 -99 -122 -212q-115 -112 -210 -112zM257 232q51 -99 56 -138q9 -44 -4 -88l2 -2q78 65 78 156q0 69 -53 165q-61 111 -65 153q-5 56 6 80v2q-27 -18 -52 -60t-26 -82q-1 -43 11.5 -81.5
t46.5 -104.5z" />
    <glyph glyph-name="dieresis" unicode="&#xa8;" horiz-adv-x="380" 
d="M229 593q25 0 39 -16t10 -41q-3 -24 -20.5 -40t-41.5 -16t-37.5 16t-9.5 41q4 24 21 40t39 16zM424 593q25 0 39 -16t10 -41q-3 -24 -20.5 -40t-41.5 -16t-37.5 16t-9.5 41q4 24 21 40t39 16z" />
    <glyph glyph-name="copyright" unicode="&#xa9;" horiz-adv-x="838" 
d="M483 -16q-149 0 -249.5 100.5t-100.5 245.5t100.5 245.5t249.5 100.5t249.5 -100.5t100.5 -245.5t-100.5 -245.5t-249.5 -100.5zM483 633q-121 0 -204.5 -88t-83.5 -214q0 -127 83.5 -215.5t204.5 -88.5t204.5 88.5t83.5 215.5q0 126 -83.5 214t-204.5 88zM517 522
q43 0 118 -16q0 -23 7 -93q-10 -10 -23 -1q-19 81 -102 81q-57 0 -98.5 -42t-41.5 -118t42.5 -120.5t100.5 -44.5q31 0 55 14t34 28t22 37q5 4 12.5 3.5t10.5 -6.5q-6 -55 -26 -84q-10 -2 -20 -6q-45 -15 -90 -15q-91 0 -145 37q-80 55 -80 148t66 145.5t158 52.5z" />
    <glyph glyph-name="ordfeminine" unicode="&#xaa;" horiz-adv-x="384" 
d="M292 344h-2q-37 -42 -85.5 -73t-82.5 -31q-19 0 -31.5 12.5t-12.5 29.5q0 24 24.5 71.5t65.5 90.5q50 53 94 72q34 14 64 14q21 0 36 -18l20 40q8 4 14 4q8 0 24 -4q17 -7 24 -14q-75 -172 -96 -232q-5 -16 4 -16q23 0 72 46q6 0 10 -5t4 -11q-26 -32 -67 -56t-79 -24
q-13 0 -20.5 8t-7.5 16q0 6 8 28zM180 290q20 0 74 54q26 26 52 66t34 64q-12 24 -34 24q-19 0 -50 -28q-32 -34 -58 -85t-26 -83v-6q0 -6 8 -6z" />
    <glyph glyph-name="guillemotleft" unicode="&#xab;" horiz-adv-x="441" 
d="M158 194l42 -154q-2 -6 -8.5 -9.5t-13.5 -2.5q-70 113 -104 162q-10 16 8 34q26 24 54 51t61 59t51 50q17 3 20 -14l-106 -150q-7 -12 -4 -26zM323 194l42 -154q-2 -6 -8.5 -9.5t-13.5 -2.5q-70 113 -104 162q-10 16 8 34q26 24 54 51t61 59t51 50q17 3 20 -14l-106 -150
q-7 -12 -4 -26z" />
    <glyph glyph-name="logicalnot" unicode="&#xac;" 
d="M383 82v167h-314v63h389v-230h-75z" />
    <glyph glyph-name="registered" unicode="&#xae;" horiz-adv-x="838" 
d="M365 240v179q0 43 -4.5 53.5t-27.5 13.5l-10 2q-3 4 -2.5 11t4.5 10q55 6 133 6q33 0 57.5 -3.5t48.5 -13t37 -30.5t13 -52q0 -33 -21.5 -56t-47.5 -32q-2 -5 3 -14q69 -118 105 -147q9 -7 30 -12q4 -6 0 -12q-19 -3 -39 -3q-39 0 -63 17t-53 62l-45 75q-8 12 -34 12
q-8 0 -10.5 -2t-2.5 -10v-54q0 -49 4.5 -60t29.5 -14l13 -1q3 -3 2.5 -11t-3.5 -10q-64 2 -84 2q-22 0 -80 -2q-4 2 -5 10t3 11l15 1q24 3 29 14t5 60zM436 463v-112q0 -13 5.5 -16t29.5 -3q35 0 51 19q17 20 17 56q0 34 -20 57t-53 23q-18 0 -24 -4t-6 -20zM483 -16
q-149 0 -249.5 100.5t-100.5 245.5t100.5 245.5t249.5 100.5t249.5 -100.5t100.5 -245.5t-100.5 -245.5t-249.5 -100.5zM483 633q-121 0 -204.5 -88t-83.5 -214q0 -127 83.5 -215.5t204.5 -88.5t204.5 88.5t83.5 215.5q0 126 -83.5 214t-204.5 88z" />
    <glyph glyph-name="macron" unicode="&#xaf;" horiz-adv-x="380" 
d="M441 511h-254q-7 10 -3.5 28.5t13.5 28.5h254q7 -10 3.5 -28t-13.5 -29z" />
    <glyph glyph-name="macron" unicode="&#x2c9;" horiz-adv-x="380" 
d="M441 511h-254q-7 10 -3.5 28.5t13.5 28.5h254q7 -10 3.5 -28t-13.5 -29z" />
    <glyph glyph-name="degree" unicode="&#xb0;" horiz-adv-x="400" 
d="M313 640q59 0 100 -38t41 -98q0 -62 -40.5 -98.5t-100.5 -36.5t-100.5 36.5t-40.5 98.5q0 60 41 98t100 38zM313 599q-34 0 -55.5 -26.5t-21.5 -68.5q0 -41 21.5 -67.5t55.5 -26.5t55.5 26.5t21.5 67.5q0 42 -21.5 68.5t-55.5 26.5z" />
    <glyph glyph-name="plusminus" unicode="&#xb1;" 
d="M458 63v-63h-386v63h386zM303 98h-75v141h-156v63h156v134h75v-134h155v-63h-155v-141z" />
    <glyph glyph-name="twosuperior" unicode="&#xb2;" horiz-adv-x="370" 
d="M256 247h-102q-20 0 -46.5 -1t-29.5 -1q-8 5 -4 16q64 41 126 90q36 28 53 42.5t42 40t36 49t11 48.5q0 26 -17 43.5t-45 17.5q-49 0 -90 -59q-7 -3 -13.5 1.5t-8.5 12.5q22 42 63.5 67.5t86.5 25.5q51 0 84.5 -28t33.5 -75q0 -45 -31 -77t-98 -76l-58 -39
q-43 -29 -33 -36q0 -2 12 -2h72q31 0 46.5 6t31.5 26q4 3 11.5 2.5t10.5 -6.5q-23 -57 -48 -90q-60 2 -96 2z" />
    <glyph glyph-name="threesuperior" unicode="&#xb3;" horiz-adv-x="370" 
d="M406 385q0 -82 -100 -138q-72 -40 -160 -40q-34 0 -56 12.5t-22 36.5q0 15 10 25t26 10q19 0 41 -34q13 -18 33 -18q53 0 91.5 41.5t38.5 96.5q0 29 -17.5 47.5t-45.5 18.5q-37 0 -69 -28q-11 5 -14.5 15t2.5 21q80 21 126 52q40 27 40 56q0 17 -13 27t-33 10
q-43 0 -90 -51q-7 -1 -12.5 3.5t-5.5 12.5q60 79 142 79q41 0 68.5 -20.5t27.5 -55.5q0 -53 -94 -79q-9 -5 1 -8l5 -1q32 -5 56 -29t24 -62z" />
    <glyph glyph-name="acute" unicode="&#xb4;" horiz-adv-x="380" 
d="M397 584l-132 -143q-19 -1 -22 16l91 182q14 30 31 30t34 -14q23 -18 23 -33q0 -11 -25 -38z" />
    <glyph glyph-name="mu" unicode="&#xb5;" horiz-adv-x="520" 
d="M280 345l-103 -257q-11 -28 7 -28q16 0 73 54q90 87 188 290q11 4 30 4q16 0 31 -6t19 -14q-2 -5 -48 -122.5t-70 -182.5q-8 -27 5 -27t43.5 24.5t52.5 48.5q18 0 18 -18q-23 -41 -84 -83t-110 -42q-17 0 -27 13.5t-3 30.5l56 146h-2q-53 -66 -122.5 -128t-107.5 -62
q-15 0 -18 6q-6 2 -9.5 -2.5t-6.5 -13.5l-15 -41q-10 -30 -14 -68t-2.5 -59.5t-0.5 -35.5q-4 -15 -29 -28t-56 -13q-27 0 -16 31l210 548q10 26 -3 26q-27 0 -92 -67q-19 4 -16 20q29 41 84.5 80t105.5 39q15 0 26.5 -11t11.5 -25q0 -11 -6 -27z" />
    <glyph glyph-name="mu" unicode="&#x3bc;" horiz-adv-x="520" 
d="M280 345l-103 -257q-11 -28 7 -28q16 0 73 54q90 87 188 290q11 4 30 4q16 0 31 -6t19 -14q-2 -5 -48 -122.5t-70 -182.5q-8 -27 5 -27t43.5 24.5t52.5 48.5q18 0 18 -18q-23 -41 -84 -83t-110 -42q-17 0 -27 13.5t-3 30.5l56 146h-2q-53 -66 -122.5 -128t-107.5 -62
q-15 0 -18 6q-6 2 -9.5 -2.5t-6.5 -13.5l-15 -41q-10 -30 -14 -68t-2.5 -59.5t-0.5 -35.5q-4 -15 -29 -28t-56 -13q-27 0 -16 31l210 548q10 26 -3 26q-27 0 -92 -67q-19 4 -16 20q29 41 84.5 80t105.5 39q15 0 26.5 -11t11.5 -25q0 -11 -6 -27z" />
    <glyph glyph-name="paragraph" unicode="&#xb6;" horiz-adv-x="506" 
d="M513 558l-134 -454q-39 -133 -95 -175q-34 -25 -79 -25q-36 0 -63 19.5t-27 54.5q0 23 13 40t29 22q18 0 32 -10t14 -22q-16 -16 -17 -38q-1 -14 8 -22t23 -8q45 0 80 118l46 156q10 36 -8 36q-62 0 -119 44.5t-57 124.5q0 60 30 109.5t79 79.5q86 52 241 52q99 0 120 -6
q6 -3 4 -13t-8 -13l-40 -6q-41 -8 -50.5 -16t-21.5 -48z" />
    <glyph glyph-name="periodcentered" unicode="&#xb7;" horiz-adv-x="255" 
d="M144 137q-26 0 -41 15.5t-15 42.5q0 32 20.5 55t51.5 23q25 0 39.5 -16.5t14.5 -43.5q0 -33 -20.5 -54.5t-49.5 -21.5z" />
    <glyph glyph-name="periodcentered" unicode="&#x2219;" horiz-adv-x="255" 
d="M144 137q-26 0 -41 15.5t-15 42.5q0 32 20.5 55t51.5 23q25 0 39.5 -16.5t14.5 -43.5q0 -33 -20.5 -54.5t-49.5 -21.5z" />
    <glyph glyph-name="cedilla" unicode="&#xb8;" horiz-adv-x="380" 
d="M158 0h44l-37 -50q-6 -9 -4.5 -12t12.5 -11q46 -36 46 -77q0 -39 -35 -64t-82 -25q-33 0 -52 11t-19 31q0 13 8.5 22t21.5 9t33 -17.5t29 -17.5t18 8.5t9 23.5q0 12 -12.5 27t-21 21t-27.5 19l-3 6z" />
    <glyph glyph-name="onesuperior" unicode="&#xb9;" horiz-adv-x="370" 
d="M310 271l26 -4q5 -3 3 -12t-9 -10q-68 2 -104 2q-34 0 -94 -2q-6 1 -6 10t6 12l22 3q26 4 34.5 15.5t21.5 51.5l57 178q9 26 9 38q0 11 -24 15l-28 5q-5 3 -3.5 11t7.5 11q94 13 152 42q10 0 11 -6q-14 -39 -27 -80l-68 -214q-13 -39 -11 -51t25 -15z" />
    <glyph glyph-name="ordmasculine" unicode="&#xba;" horiz-adv-x="356" 
d="M205 270q26 0 56 42q23 32 41 80t21 82q1 15 -6.5 25.5t-18.5 10.5q-24 0 -49 -30q-27 -32 -50.5 -85.5t-23.5 -90.5q0 -14 8 -24t22 -10zM201 240q-50 0 -77 27.5t-25 72.5q2 37 23 79t55 73q54 48 119 48q53 0 79 -30.5t24 -73.5q-2 -34 -20.5 -74t-53.5 -72
q-54 -50 -124 -50z" />
    <glyph glyph-name="guillemotright" unicode="&#xbb;" horiz-adv-x="441" 
d="M68 42l107 150q9 11 5 26l-45 154q8 15 24 12q70 -113 104 -162q10 -16 -8 -34q-26 -24 -54 -51t-61 -59t-51 -50q-16 -3 -21 14zM233 42l107 150q9 11 5 26l-45 154q8 15 24 12q70 -113 104 -162q10 -16 -8 -34q-26 -24 -54 -51t-61 -59t-51 -50q-16 -3 -21 14z" />
    <glyph glyph-name="onequarter" unicode="&#xbc;" horiz-adv-x="840" 
d="M729 22l18 -2q3 -4 1.5 -12.5t-5.5 -9.5q-64 2 -102 2q-32 0 -96 -2q-6 2 -5 9.5t7 12.5l22 2q27 3 37.5 10.5t17.5 32.5l9 28q3 12 1.5 14.5t-13.5 2.5h-152q-8 0 -8 10q0 8 10 18l298 278q12 12 28 12q14 0 24 -4q9 -4 -6 -18l-278 -252q-3 -9 16 -10h78q12 0 16 3
t8 13l30 94q4 10 18 17q30 13 66 13q13 0 8 -14l-38 -110q-4 -10 -2 -13t12 -3h40q6 -3 3.5 -16.5t-11.5 -17.5h-40q-13 0 -16 -2t-6 -12l-8 -26q-10 -27 -7.5 -36t25.5 -12zM295 271l26 -4q5 -3 3 -12t-9 -10q-68 2 -104 2q-34 0 -94 -2q-6 1 -6 10t6 12l22 3
q26 4 34.5 15.5t21.5 51.5l57 178q9 26 9 38q0 11 -24 15l-28 5q-5 3 -3.5 11t7.5 11q94 13 152 42q9 0 11 -6q-14 -39 -27 -80l-68 -214q-13 -39 -11 -51t25 -15zM762 634q-307 -379 -537 -668q-15 0 -23.5 8t-7.5 22q278 343 532 664q32 0 36 -26z" />
    <glyph glyph-name="onehalf" unicode="&#xbd;" horiz-adv-x="840" 
d="M285 271l26 -4q5 -3 3 -12t-9 -10q-68 2 -104 2q-34 0 -94 -2q-6 1 -6 10t6 12l22 3q26 4 34.5 15.5t21.5 51.5l57 178q9 26 9 38q0 11 -24 15l-28 5q-5 3 -3.5 11t7.5 11q94 13 152 42q9 0 11 -6q-14 -39 -27 -80l-68 -214q-13 -39 -11 -51t25 -15zM740 634
q-307 -379 -537 -668q-15 0 -23.5 8t-7.5 22q278 343 532 664q32 0 36 -26zM646 0h-102q-20 0 -46.5 -1t-29.5 -1q-8 5 -4 16q64 41 126 90q36 28 53 42.5t42 40t36 49t11 48.5q0 26 -17 43.5t-45 17.5q-49 0 -90 -59q-7 -3 -13.5 1.5t-8.5 12.5q22 42 63.5 67.5t86.5 25.5
q51 0 84.5 -28t33.5 -75q0 -45 -31 -77t-98 -76l-58 -39q-43 -29 -33 -36q0 -2 12 -2h72q31 0 46.5 6t31.5 26q4 3 11.5 2.5t10.5 -6.5q-23 -57 -48 -90q-60 2 -96 2z" />
    <glyph glyph-name="threequarters" unicode="&#xbe;" horiz-adv-x="840" 
d="M742 22l18 -2q3 -4 1.5 -12.5t-5.5 -9.5q-64 2 -102 2q-32 0 -96 -2q-6 2 -5 9.5t7 12.5l22 2q27 3 37.5 10.5t17.5 32.5l9 28q3 12 1.5 14.5t-13.5 2.5h-152q-8 0 -8 10q0 8 10 18l298 278q12 12 28 12q14 0 24 -4q9 -4 -6 -18l-278 -252q-3 -9 16 -10h78q12 0 16 3
t8 13l30 94q4 10 18 17q30 13 66 13q13 0 8 -14l-38 -110q-4 -10 -2 -13t12 -3h40q6 -3 3.5 -16.5t-11.5 -17.5h-40q-13 0 -16 -2t-6 -12l-8 -26q-10 -27 -7.5 -36t25.5 -12zM421 385q0 -82 -100 -138q-72 -40 -160 -40q-34 0 -56 12.5t-22 36.5q0 15 10 25t26 10
q19 0 41 -34q13 -18 33 -18q53 0 91.5 41.5t38.5 96.5q0 29 -17.5 47.5t-45.5 18.5q-37 0 -69 -28q-11 5 -14.5 15t2.5 21q80 21 126 52q40 27 40 56q0 17 -13 27t-33 10q-43 0 -90 -51q-7 -1 -12.5 3.5t-5.5 12.5q60 79 142 79q41 0 68.5 -20.5t27.5 -55.5q0 -53 -94 -79
q-9 -5 1 -8l5 -1q32 -5 56 -29t24 -62zM789 634q-307 -379 -537 -668q-15 0 -23.5 8t-7.5 22q278 343 532 664q32 0 36 -26z" />
    <glyph glyph-name="questiondown" unicode="&#xbf;" horiz-adv-x="326" 
d="M88 -266q-49 0 -90.5 47t-41.5 109q0 91 104 138l72 34q31 15 43.5 29t12.5 33q0 21 -6 48q3 4 10.5 5.5t11.5 -1.5q16 -20 26 -48.5t6 -53.5q-5 -62 -94 -100l-68 -32q-74 -34 -74 -68q0 -23 20 -39.5t46 -16.5q24 0 48 8q28 8 30 8q12 0 20 -9.5t8 -24.5q0 -26 -23 -46
t-61 -20zM224 394q26 0 41 -15.5t15 -42.5q0 -32 -20.5 -55t-51.5 -23q-25 0 -39.5 16.5t-14.5 43.5q0 33 20.5 54.5t49.5 21.5z" />
    <glyph glyph-name="Agrave" unicode="&#xc0;" horiz-adv-x="608" 
d="M388 247h-131q-22 0 -28 -3.5t-19 -24.5l-69 -111q-32 -52 -32 -62t25 -14l32 -6q6 -5 5 -14.5t-8 -14.5q-63 3 -115 3q-55 0 -104 -3q-7 4 -7 14.5t6 14.5l25 4q30 5 48 18t45 51q115 159 145 203l160 230q58 82 62 107q13 1 27.5 6t24 9.5t23 12.5t15.5 9q16 0 16 -11
q0 -1 -5 -144q-6 -191 -9 -385q-2 -69 6.5 -86t45.5 -21l24 -3q5 -5 3.5 -15t-7.5 -14q-63 3 -130 3q-76 0 -123 -3q-9 4 -9 14.5t6 14.5l27 4q31 5 39 15.5t10 45.5l6 133q1 15 -4.5 19t-25.5 4zM287 292h107q15 0 19 4t5 20l9 169q1 11 1 30v31h-2q-8 -14 -48 -73
l-109 -163q-8 -11 -4.5 -14.5t22.5 -3.5zM547 701l-207 71q-25 9 -31 21q-3 10 11 37q14 26 31 26q10 0 31 -14l177 -120q1 -7 -2.5 -13t-9.5 -8z" />
    <glyph glyph-name="Aacute" unicode="&#xc1;" horiz-adv-x="608" 
d="M388 247h-131q-22 0 -28 -3.5t-19 -24.5l-69 -111q-32 -52 -32 -62t25 -14l32 -6q6 -5 5 -14.5t-8 -14.5q-63 3 -115 3q-55 0 -104 -3q-7 4 -7 14.5t6 14.5l25 4q30 5 48 18t45 51q115 159 145 203l160 230q58 82 62 107q13 1 27.5 6t24 9.5t23 12.5t15.5 9q16 0 16 -11
q0 -1 -5 -144q-6 -191 -9 -385q-2 -69 6.5 -86t45.5 -21l24 -3q5 -5 3.5 -15t-7.5 -14q-63 3 -130 3q-76 0 -123 -3q-9 4 -9 14.5t6 14.5l27 4q31 5 39 15.5t10 45.5l6 133q1 15 -4.5 19t-25.5 4zM287 292h107q15 0 19 4t5 20l9 169q1 11 1 30v31h-2q-8 -14 -48 -73
l-109 -163q-8 -11 -4.5 -14.5t22.5 -3.5zM664 762l-207 -71q-6 2 -9.5 8t-2.5 13l177 120q21 14 31 14q17 0 31 -26q14 -27 11 -37q-6 -12 -31 -21z" />
    <glyph glyph-name="Acircumflex" unicode="&#xc2;" horiz-adv-x="608" 
d="M388 247h-131q-22 0 -28 -3.5t-19 -24.5l-69 -111q-32 -52 -32 -62t25 -14l32 -6q6 -5 5 -14.5t-8 -14.5q-63 3 -115 3q-55 0 -104 -3q-7 4 -7 14.5t6 14.5l25 4q30 5 48 18t45 51q115 159 145 203l160 230q58 82 62 107q13 1 27.5 6t24 9.5t23 12.5t15.5 9q16 0 16 -11
q0 -1 -5 -144q-6 -191 -9 -385q-2 -69 6.5 -86t45.5 -21l24 -3q5 -5 3.5 -15t-7.5 -14q-63 3 -130 3q-76 0 -123 -3q-9 4 -9 14.5t6 14.5l27 4q31 5 39 15.5t10 45.5l6 133q1 15 -4.5 19t-25.5 4zM287 292h107q15 0 19 4t5 20l9 169q1 11 1 30v31h-2q-8 -14 -48 -73
l-109 -163q-8 -11 -4.5 -14.5t22.5 -3.5zM492 763l-140 -73q-9 0 -14 5.5t-4 13.5l164 134q28 23 49 0l117 -136q0 -15 -21 -17l-114 73q-17 10 -37 0z" />
    <glyph glyph-name="Atilde" unicode="&#xc3;" horiz-adv-x="608" 
d="M388 247h-131q-22 0 -28 -3.5t-19 -24.5l-69 -111q-32 -52 -32 -62t25 -14l32 -6q6 -5 5 -14.5t-8 -14.5q-63 3 -115 3q-55 0 -104 -3q-7 4 -7 14.5t6 14.5l25 4q30 5 48 18t45 51q115 159 145 203l160 230q58 82 62 107q13 1 27.5 6t24 9.5t23 12.5t15.5 9q16 0 16 -11
q0 -1 -5 -144q-6 -191 -9 -385q-2 -69 6.5 -86t45.5 -21l24 -3q5 -5 3.5 -15t-7.5 -14q-63 3 -130 3q-76 0 -123 -3q-9 4 -9 14.5t6 14.5l27 4q31 5 39 15.5t10 45.5l6 133q1 15 -4.5 19t-25.5 4zM287 292h107q15 0 19 4t5 20l9 169q1 11 1 30v31h-2q-8 -14 -48 -73
l-109 -163q-8 -11 -4.5 -14.5t22.5 -3.5zM450 798h110q45 0 62 16q19 19 26 36q5 3 13 1.5t11 -5.5q-6 -23 -18.5 -49t-22.5 -36q-19 -23 -66 -23h-100q-43 0 -67 -21q-17 -16 -31 -43q-16 -6 -24 6q4 22 17 52.5t26 43.5q20 22 64 22z" />
    <glyph glyph-name="Adieresis" unicode="&#xc4;" horiz-adv-x="608" 
d="M388 247h-131q-22 0 -28 -3.5t-19 -24.5l-69 -111q-32 -52 -32 -62t25 -14l32 -6q6 -5 5 -14.5t-8 -14.5q-63 3 -115 3q-55 0 -104 -3q-7 4 -7 14.5t6 14.5l25 4q30 5 48 18t45 51q115 159 145 203l160 230q58 82 62 107q13 1 27.5 6t24 9.5t23 12.5t15.5 9q16 0 16 -11
q0 -1 -5 -144q-6 -191 -9 -385q-2 -69 6.5 -86t45.5 -21l24 -3q5 -5 3.5 -15t-7.5 -14q-63 3 -130 3q-76 0 -123 -3q-9 4 -9 14.5t6 14.5l27 4q31 5 39 15.5t10 45.5l6 133q1 15 -4.5 19t-25.5 4zM287 292h107q15 0 19 4t5 20l9 169q1 11 1 30v31h-2q-8 -14 -48 -73
l-109 -163q-8 -11 -4.5 -14.5t22.5 -3.5zM412 815q25 0 39 -16t10 -41q-3 -24 -20.5 -40t-41.5 -16t-37.5 16t-9.5 41q4 24 21 40t39 16zM612 815q25 0 39 -16t10 -41q-3 -24 -20.5 -40t-41.5 -16t-37.5 16t-9.5 41q4 24 21 40t39 16z" />
    <glyph glyph-name="Aring" unicode="&#xc5;" horiz-adv-x="608" 
d="M457 743q0 -29 14 -48t38 -19t38 19t14 48t-14 47.5t-38 18.5t-38 -18.5t-14 -47.5zM572 29l24 -3q5 -5 3.5 -15t-7.5 -14q-63 3 -130 3q-76 0 -123 -3q-9 4 -9 14.5t6 14.5l27 4q32 5 40.5 15.5t9.5 45.5l7 133q1 15 -4.5 19t-25.5 4h-131q-22 0 -28.5 -4t-18.5 -24
l-70 -111q-33 -52 -33 -62t25 -14l32 -6q6 -5 5 -14.5t-8 -14.5q-63 3 -115 3q-55 0 -104 -3q-7 4 -7 14.5t6 14.5l25 4q30 5 48 18t46 51q2 3 33 45.5t64 88t50 69.5l162 230q50 71 82 121q-25 13 -39 37.5t-14 52.5q0 42 30.5 73t78.5 31t78.5 -31t30.5 -73
q0 -34 -20.5 -61.5t-58.5 -37.5q0 -1 -5 -123q-8 -170 -13 -385q-2 -69 6 -86t45 -21zM290 292h107q15 0 19 4t5 20l10 169q1 11 1.5 30t0.5 31h-2q-2 -3 -49 -73l-110 -163q-8 -11 -4.5 -14.5t22.5 -3.5z" />
    <glyph glyph-name="AE" unicode="&#xc6;" horiz-adv-x="852" 
d="M423 320h-109q-18 0 -27.5 -5.5t-27.5 -28.5q-25 -32 -61.5 -78t-61.5 -78.5t-44 -58.5q-22 -31 2 -36l45 -9q6 -6 5 -16t-8 -13q-57 3 -121 3q-48 0 -99 -3q-6 5 -5.5 15t7.5 14l24 4q25 4 48 21t64 65q215 250 373 447q15 20 22 30t8.5 17.5t-3.5 10.5t-17 5l-50 8
q-7 3 -6 14t9 15q46 -2 71 -2q26 -1 82 -1h261q116 0 138 3q-20 -42 -45 -145q-5 -6 -17 -6.5t-15 6.5q4 31 0.5 53t-19.5 32q-29 18 -95 18h-66q-22 0 -29 -6t-15 -30l-60 -191q-6 -21 -3.5 -25t23.5 -4h54q55 0 76 9.5t38 43.5l14 27q6 6 18 5t14 -7q-5 -13 -17 -48.5
t-19 -53.5q-18 -63 -27 -101q-6 -5 -17.5 -5t-14.5 5l2 26q3 36 -13 45t-68 9h-52q-21 0 -27 -4.5t-12 -23.5l-41 -128q-24 -82 -14 -102q6 -12 26 -17.5t74 -5.5q80 0 118.5 18t90.5 91q6 5 16.5 3t14.5 -9q-11 -33 -33.5 -79.5t-38.5 -65.5q-64 2 -113 2q-41 1 -124 1
h-121q-57 0 -124 -3q-7 4 -6.5 14t8.5 15l25 4q36 4 51 23t38 91l47 152q5 15 1.5 19.5t-22.5 4.5zM352 365h75q25 0 33.5 4.5t13.5 22.5l59 191q10 38 4 38q-2 0 -5 -1.5t-6.5 -5.5t-6.5 -8t-8 -10.5t-9 -10.5q-42 -50 -160 -199q-11 -14 -9.5 -17.5t19.5 -3.5z" />
    <glyph glyph-name="Ccedilla" unicode="&#xc7;" horiz-adv-x="656" 
d="M310 -96l61 82q-124 6 -197 73t-72 187q0 92 40 173.5t104 138.5q133 118 332 118q68 0 184 -33q-26 -59 -47 -146q-4 -6 -17.5 -5.5t-14.5 7.5q9 71 -18 104.5t-97 33.5q-133 0 -236 -120q-43 -50 -73.5 -126t-30.5 -155q0 -108 47 -160.5t124 -52.5q65 0 114.5 35.5
t98.5 104.5q7 5 17 3.5t13 -8.5q-21 -66 -68 -150q-11 -1 -78 -14q-73 -9 -81 -9l-26 -35q-6 -9 -4.5 -12t12.5 -11q46 -36 46 -77q0 -39 -35 -64t-82 -25q-33 0 -52 11t-19 31q0 13 8.5 22t21.5 9t33 -17.5t29 -17.5t18 8.5t9 23.5q0 12 -12.5 27t-21 21t-27.5 19z" />
    <glyph glyph-name="Egrave" unicode="&#xc8;" horiz-adv-x="588" 
d="M262 0h-121q-57 0 -136 -3q-7 4 -6.5 14t8.5 15l34 4q35 4 50 23t38 91l116 372q21 65 18 85.5t-39 28.5l-24 6q-6 5 -4 14t10 13q42 -2 66 -2q22 -1 64 -1h204q116 0 138 3q-20 -42 -45 -145q-5 -6 -17 -6.5t-15 6.5q4 31 0.5 53t-19.5 32q-29 18 -95 18h-66
q-22 0 -29 -6t-15 -30l-60 -191q-6 -21 -3.5 -25t23.5 -4h54q55 0 76 9.5t38 43.5l14 27q6 6 18 5t14 -7q-5 -13 -17 -48.5t-19 -53.5q-18 -63 -27 -101q-6 -5 -17.5 -5t-14.5 5l2 26q3 36 -13 45t-68 9h-52q-21 0 -27 -4.5t-12 -23.5l-41 -128q-24 -82 -14 -102
q6 -12 26 -17.5t74 -5.5q80 0 118.5 18t90.5 91q6 5 16.5 3t14.5 -9q-11 -33 -33.5 -79.5t-38.5 -65.5q-64 2 -113 2q-41 1 -124 1zM507 701l-207 71q-25 9 -31 21q-3 10 11 37q14 26 31 26q10 0 31 -14l177 -120q1 -7 -2.5 -13t-9.5 -8z" />
    <glyph glyph-name="Eacute" unicode="&#xc9;" horiz-adv-x="588" 
d="M262 0h-121q-57 0 -136 -3q-7 4 -6.5 14t8.5 15l34 4q35 4 50 23t38 91l116 372q21 65 18 85.5t-39 28.5l-24 6q-6 5 -4 14t10 13q42 -2 66 -2q22 -1 64 -1h204q116 0 138 3q-20 -42 -45 -145q-5 -6 -17 -6.5t-15 6.5q4 31 0.5 53t-19.5 32q-29 18 -95 18h-66
q-22 0 -29 -6t-15 -30l-60 -191q-6 -21 -3.5 -25t23.5 -4h54q55 0 76 9.5t38 43.5l14 27q6 6 18 5t14 -7q-5 -13 -17 -48.5t-19 -53.5q-18 -63 -27 -101q-6 -5 -17.5 -5t-14.5 5l2 26q3 36 -13 45t-68 9h-52q-21 0 -27 -4.5t-12 -23.5l-41 -128q-24 -82 -14 -102
q6 -12 26 -17.5t74 -5.5q80 0 118.5 18t90.5 91q6 5 16.5 3t14.5 -9q-11 -33 -33.5 -79.5t-38.5 -65.5q-64 2 -113 2q-41 1 -124 1zM654 762l-207 -71q-6 2 -9.5 8t-2.5 13l177 120q21 14 31 14q17 0 31 -26q14 -27 11 -37q-6 -12 -31 -21z" />
    <glyph glyph-name="Ecircumflex" unicode="&#xca;" horiz-adv-x="588" 
d="M262 0h-121q-57 0 -136 -3q-7 4 -6.5 14t8.5 15l34 4q35 4 50 23t38 91l116 372q21 65 18 85.5t-39 28.5l-24 6q-6 5 -4 14t10 13q42 -2 66 -2q22 -1 64 -1h204q116 0 138 3q-20 -42 -45 -145q-5 -6 -17 -6.5t-15 6.5q4 31 0.5 53t-19.5 32q-29 18 -95 18h-66
q-22 0 -29 -6t-15 -30l-60 -191q-6 -21 -3.5 -25t23.5 -4h54q55 0 76 9.5t38 43.5l14 27q6 6 18 5t14 -7q-5 -13 -17 -48.5t-19 -53.5q-18 -63 -27 -101q-6 -5 -17.5 -5t-14.5 5l2 26q3 36 -13 45t-68 9h-52q-21 0 -27 -4.5t-12 -23.5l-41 -128q-24 -82 -14 -102
q6 -12 26 -17.5t74 -5.5q80 0 118.5 18t90.5 91q6 5 16.5 3t14.5 -9q-11 -33 -33.5 -79.5t-38.5 -65.5q-64 2 -113 2q-41 1 -124 1zM462 763l-140 -73q-9 0 -14 5.5t-4 13.5l164 134q28 23 49 0l117 -136q0 -15 -21 -17l-114 73q-17 10 -37 0z" />
    <glyph glyph-name="Edieresis" unicode="&#xcb;" horiz-adv-x="588" 
d="M262 0h-121q-57 0 -136 -3q-7 4 -6.5 14t8.5 15l34 4q35 4 50 23t38 91l116 372q21 65 18 85.5t-39 28.5l-24 6q-6 5 -4 14t10 13q42 -2 66 -2q22 -1 64 -1h204q116 0 138 3q-20 -42 -45 -145q-5 -6 -17 -6.5t-15 6.5q4 31 0.5 53t-19.5 32q-29 18 -95 18h-66
q-22 0 -29 -6t-15 -30l-60 -191q-6 -21 -3.5 -25t23.5 -4h54q55 0 76 9.5t38 43.5l14 27q6 6 18 5t14 -7q-5 -13 -17 -48.5t-19 -53.5q-18 -63 -27 -101q-6 -5 -17.5 -5t-14.5 5l2 26q3 36 -13 45t-68 9h-52q-21 0 -27 -4.5t-12 -23.5l-41 -128q-24 -82 -14 -102
q6 -12 26 -17.5t74 -5.5q80 0 118.5 18t90.5 91q6 5 16.5 3t14.5 -9q-11 -33 -33.5 -79.5t-38.5 -65.5q-64 2 -113 2q-41 1 -124 1zM382 815q25 0 39 -16t10 -41q-3 -24 -20.5 -40t-41.5 -16t-37.5 16t-9.5 41q4 24 21 40t39 16zM582 815q25 0 39 -16t10 -41
q-3 -24 -20.5 -40t-41.5 -16t-37.5 16t-9.5 41q4 24 21 40t39 16z" />
    <glyph glyph-name="Igrave" unicode="&#xcc;" horiz-adv-x="357" 
d="M263 30l30 -4q4 -6 2 -15.5t-8 -13.5q-80 3 -143 3q-66 0 -131 -3q-6 4 -5.5 15t7.5 14l28 4q34 4 48.5 23t37.5 91l116 372q12 36 16 54.5t2.5 33t-11.5 19.5t-30 7l-30 4q-4 6 -2 15.5t8 13.5q80 -3 143 -3q67 0 131 3q6 -4 5.5 -15t-7.5 -14l-28 -4q-34 -4 -49 -23
t-37 -91l-116 -372q-12 -36 -16 -54.5t-2.5 -33t11.5 -19.5t30 -7zM392 701l-207 71q-25 9 -31 21q-3 10 11 37q14 26 31 26q10 0 31 -14l177 -120q1 -7 -2.5 -13t-9.5 -8z" />
    <glyph glyph-name="Iacute" unicode="&#xcd;" horiz-adv-x="357" 
d="M263 30l30 -4q4 -6 2 -15.5t-8 -13.5q-80 3 -143 3q-66 0 -131 -3q-6 4 -5.5 15t7.5 14l28 4q34 4 48.5 23t37.5 91l116 372q12 36 16 54.5t2.5 33t-11.5 19.5t-30 7l-30 4q-4 6 -2 15.5t8 13.5q80 -3 143 -3q67 0 131 3q6 -4 5.5 -15t-7.5 -14l-28 -4q-34 -4 -49 -23
t-37 -91l-116 -372q-12 -36 -16 -54.5t-2.5 -33t11.5 -19.5t30 -7zM529 762l-207 -71q-6 2 -9.5 8t-2.5 13l177 120q21 14 31 14q17 0 31 -26q14 -27 11 -37q-6 -12 -31 -21z" />
    <glyph glyph-name="Icircumflex" unicode="&#xce;" horiz-adv-x="357" 
d="M263 30l30 -4q4 -6 2 -15.5t-8 -13.5q-80 3 -143 3q-66 0 -131 -3q-6 4 -5.5 15t7.5 14l28 4q34 4 48.5 23t37.5 91l116 372q12 36 16 54.5t2.5 33t-11.5 19.5t-30 7l-30 4q-4 6 -2 15.5t8 13.5q80 -3 143 -3q67 0 131 3q6 -4 5.5 -15t-7.5 -14l-28 -4q-34 -4 -49 -23
t-37 -91l-116 -372q-12 -36 -16 -54.5t-2.5 -33t11.5 -19.5t30 -7zM347 763l-140 -73q-9 0 -14 5.5t-4 13.5l164 134q28 23 49 0l117 -136q0 -15 -21 -17l-114 73q-17 10 -37 0z" />
    <glyph glyph-name="Idieresis" unicode="&#xcf;" horiz-adv-x="357" 
d="M263 30l30 -4q4 -6 2 -15.5t-8 -13.5q-80 3 -143 3q-66 0 -131 -3q-6 4 -5.5 15t7.5 14l28 4q34 4 48.5 23t37.5 91l116 372q12 36 16 54.5t2.5 33t-11.5 19.5t-30 7l-30 4q-4 6 -2 15.5t8 13.5q80 -3 143 -3q67 0 131 3q6 -4 5.5 -15t-7.5 -14l-28 -4q-34 -4 -49 -23
t-37 -91l-116 -372q-12 -36 -16 -54.5t-2.5 -33t11.5 -19.5t30 -7zM267 815q25 0 39 -16t10 -41q-3 -24 -20.5 -40t-41.5 -16t-37.5 16t-9.5 41q4 24 21 40t39 16zM467 815q25 0 39 -16t10 -41q-3 -24 -20.5 -40t-41.5 -16t-37.5 16t-9.5 41q4 24 21 40t39 16z" />
    <glyph glyph-name="Eth" unicode="&#xd0;" horiz-adv-x="763" 
d="M188 320h-104q-4 11 0 25t13 20h105l55 170q16 49 13 63.5t-28 19.5l-34 6q-6 5 -5 15t7 14q93 10 209 10q163 0 255 -59q108 -69 108 -218q0 -80 -35.5 -154t-97.5 -126q-130 -109 -358 -109q-24 0 -71 1.5t-67 1.5q-58 0 -132 -3q-6 4 -5.5 15t7.5 14l28 4
q34 5 48.5 23.5t35.5 90.5zM430 320h-131l-56 -184q-15 -50 -2 -72q15 -28 72 -28q108 0 200 67q69 51 108 135t39 158q0 228 -227 228q-25 0 -33.5 -8t-18.5 -39l-68 -212h129q8 -33 -12 -45z" />
    <glyph glyph-name="Ntilde" unicode="&#xd1;" horiz-adv-x="730" 
d="M154 242l79 260q31 91 20 109q-6 14 -28 17l-33 8q-6 5 -4 14t10 13q42 -2 57 -2q18 -1 57 -1q63 0 75 2q2 -52 63 -191l75 -175q37 -89 56 -127q6 10 17 48l62 201q30 99 41 159q5 27 -4.5 38t-41.5 15l-26 4q-5 6 -4 15t8 14q61 -3 120 -3q51 0 111 3q5 -5 5.5 -14.5
t-5.5 -14.5l-26 -5q-49 -6 -69 -44q-14 -27 -58 -167l-74 -237q-16 -49 -32.5 -106.5t-22.5 -75.5q-15 -12 -48 -8q-2 5 -10.5 28t-25.5 66.5t-38 91.5l-93 219q-11 25 -34.5 82.5t-30.5 73.5q-5 -8 -27 -83l-69 -227q-30 -95 -42 -159q-5 -27 5 -38t42 -15l25 -4
q5 -6 4 -15t-8 -14q-61 3 -120 3q-51 0 -110 -3q-6 5 -6 14.5t6 14.5l25 5q49 6 69 44q18 34 58 167zM506 798h110q45 0 62 16q19 19 26 36q5 3 13 1.5t11 -5.5q-6 -23 -18.5 -49t-22.5 -36q-19 -23 -66 -23h-100q-43 0 -67 -21q-17 -16 -31 -43q-16 -6 -24 6q4 22 17 52.5
t26 43.5q20 22 64 22z" />
    <glyph glyph-name="Ograve" unicode="&#xd2;" horiz-adv-x="748" 
d="M371 -16q-72 0 -126.5 24t-84 64t-43.5 84.5t-13 91.5q2 95 43.5 184t117.5 153q106 91 246 91q51 0 96 -15.5t83 -47t59.5 -86.5t20.5 -127q-2 -84 -37 -166t-97 -142q-45 -45 -113.5 -76.5t-151.5 -31.5zM517 637q-68 0 -128 -51q-64 -51 -115 -158t-54 -227
q-2 -75 34 -126.5t111 -51.5q88 0 155 75q65 72 98.5 169.5t35.5 197.5q1 82 -36 127t-101 45zM577 701l-207 71q-25 9 -31 21q-3 10 11 37q14 26 31 26q10 0 31 -14l177 -120q1 -7 -2.5 -13t-9.5 -8z" />
    <glyph glyph-name="Oacute" unicode="&#xd3;" horiz-adv-x="748" 
d="M371 -16q-72 0 -126.5 24t-84 64t-43.5 84.5t-13 91.5q2 95 43.5 184t117.5 153q106 91 246 91q51 0 96 -15.5t83 -47t59.5 -86.5t20.5 -127q-2 -84 -37 -166t-97 -142q-45 -45 -113.5 -76.5t-151.5 -31.5zM517 637q-68 0 -128 -51q-64 -51 -115 -158t-54 -227
q-2 -75 34 -126.5t111 -51.5q88 0 155 75q65 72 98.5 169.5t35.5 197.5q1 82 -36 127t-101 45zM689 762l-207 -71q-6 2 -9.5 8t-2.5 13l177 120q21 14 31 14q17 0 31 -26q14 -27 11 -37q-6 -12 -31 -21z" />
    <glyph glyph-name="Ocircumflex" unicode="&#xd4;" horiz-adv-x="748" 
d="M371 -16q-72 0 -126.5 24t-84 64t-43.5 84.5t-13 91.5q2 95 43.5 184t117.5 153q106 91 246 91q51 0 96 -15.5t83 -47t59.5 -86.5t20.5 -127q-2 -84 -37 -166t-97 -142q-45 -45 -113.5 -76.5t-151.5 -31.5zM517 637q-68 0 -128 -51q-64 -51 -115 -158t-54 -227
q-2 -75 34 -126.5t111 -51.5q88 0 155 75q65 72 98.5 169.5t35.5 197.5q1 82 -36 127t-101 45zM522 763l-140 -73q-9 0 -14 5.5t-4 13.5l164 134q28 23 49 0l117 -136q0 -15 -21 -17l-114 73q-17 10 -37 0z" />
    <glyph glyph-name="Otilde" unicode="&#xd5;" horiz-adv-x="748" 
d="M371 -16q-72 0 -126.5 24t-84 64t-43.5 84.5t-13 91.5q2 95 43.5 184t117.5 153q106 91 246 91q51 0 96 -15.5t83 -47t59.5 -86.5t20.5 -127q-2 -84 -37 -166t-97 -142q-45 -45 -113.5 -76.5t-151.5 -31.5zM517 637q-68 0 -128 -51q-64 -51 -115 -158t-54 -227
q-2 -75 34 -126.5t111 -51.5q88 0 155 75q65 72 98.5 169.5t35.5 197.5q1 82 -36 127t-101 45zM475 798h110q45 0 62 16q19 19 26 36q5 3 13 1.5t11 -5.5q-6 -23 -18.5 -49t-22.5 -36q-19 -23 -66 -23h-100q-43 0 -67 -21q-17 -16 -31 -43q-16 -6 -24 6q4 22 17 52.5
t26 43.5q20 22 64 22z" />
    <glyph glyph-name="Odieresis" unicode="&#xd6;" horiz-adv-x="748" 
d="M371 -16q-72 0 -126.5 24t-84 64t-43.5 84.5t-13 91.5q2 95 43.5 184t117.5 153q106 91 246 91q51 0 96 -15.5t83 -47t59.5 -86.5t20.5 -127q-2 -84 -37 -166t-97 -142q-45 -45 -113.5 -76.5t-151.5 -31.5zM517 637q-68 0 -128 -51q-64 -51 -115 -158t-54 -227
q-2 -75 34 -126.5t111 -51.5q88 0 155 75q65 72 98.5 169.5t35.5 197.5q1 82 -36 127t-101 45zM442 815q25 0 39 -16t10 -41q-3 -24 -20.5 -40t-41.5 -16t-37.5 16t-9.5 41q4 24 21 40t39 16zM642 815q25 0 39 -16t10 -41q-3 -24 -20.5 -40t-41.5 -16t-37.5 16t-9.5 41
q4 24 21 40t39 16z" />
    <glyph glyph-name="multiply" unicode="&#xd7;" 
d="M318 199l137 -138l-48 -50l-138 138l-137 -138l-48 50l136 137l-136 137l48 50l137 -137l138 139l48 -49z" />
    <glyph glyph-name="Oslash" unicode="&#xd8;" horiz-adv-x="748" 
d="M228 130l399 449q-37 58 -110 58q-68 0 -128 -51q-64 -51 -115 -158t-54 -227q-2 -38 8 -71zM247 86q38 -63 118 -63q88 0 155 75q65 72 98.5 169.5t35.5 197.5q1 38 -8 69zM763 666l-59 -67q69 -72 66 -199q-2 -84 -37 -166t-97 -142q-45 -45 -113.5 -76.5t-151.5 -31.5
q-103 0 -170 50l-70 -78q-10 0 -20 9.5t-11 20.5l69 77q-67 74 -65 185q2 95 43.5 184t117.5 153q106 91 246 91q92 0 160 -48l58 66q10 -1 20.5 -9t13.5 -19z" />
    <glyph glyph-name="Ugrave" unicode="&#xd9;" horiz-adv-x="726" 
d="M458 635l-28 -4q-34 -5 -49 -24t-38 -91l-72 -230q-20 -63 -23 -117q0 -140 141 -140q156 0 228 239l48 150q30 102 41 160q5 26 -4.5 37.5t-41.5 15.5l-26 4q-12 17 4 28q62 -3 120 -3q51 0 111 3q6 -5 6 -14t-6 -14l-26 -5q-49 -8 -69 -45q-13 -24 -58 -167l-49 -156
q-48 -151 -115 -209q-36 -33 -89 -51t-106 -18q-106 0 -165.5 43.5t-56.5 132.5q2 48 20 106l78 250q22 65 18 88t-42 28l-25 3q-5 6 -3 15t9 13q74 -3 138 -3q66 0 132 3q5 -4 5 -14.5t-7 -13.5zM616 701l-207 71q-25 9 -31 21q-3 10 11 37q14 26 31 26q10 0 31 -14
l177 -120q1 -7 -2.5 -13t-9.5 -8z" />
    <glyph glyph-name="Uacute" unicode="&#xda;" horiz-adv-x="726" 
d="M458 635l-28 -4q-34 -5 -49 -24t-38 -91l-72 -230q-20 -63 -23 -117q0 -140 141 -140q156 0 228 239l48 150q30 102 41 160q5 26 -4.5 37.5t-41.5 15.5l-26 4q-12 17 4 28q62 -3 120 -3q51 0 111 3q6 -5 6 -14t-6 -14l-26 -5q-49 -8 -69 -45q-13 -24 -58 -167l-49 -156
q-48 -151 -115 -209q-36 -33 -89 -51t-106 -18q-106 0 -165.5 43.5t-56.5 132.5q2 48 20 106l78 250q22 65 18 88t-42 28l-25 3q-5 6 -3 15t9 13q74 -3 138 -3q66 0 132 3q5 -4 5 -14.5t-7 -13.5zM708 762l-207 -71q-6 2 -9.5 8t-2.5 13l177 120q21 14 31 14q17 0 31 -26
q14 -27 11 -37q-6 -12 -31 -21z" />
    <glyph glyph-name="Ucircumflex" unicode="&#xdb;" horiz-adv-x="726" 
d="M458 635l-28 -4q-34 -5 -49 -24t-38 -91l-72 -230q-20 -63 -23 -117q0 -140 141 -140q156 0 228 239l48 150q30 102 41 160q5 26 -4.5 37.5t-41.5 15.5l-26 4q-12 17 4 28q62 -3 120 -3q51 0 111 3q6 -5 6 -14t-6 -14l-26 -5q-49 -8 -69 -45q-13 -24 -58 -167l-49 -156
q-48 -151 -115 -209q-36 -33 -89 -51t-106 -18q-106 0 -165.5 43.5t-56.5 132.5q2 48 20 106l78 250q22 65 18 88t-42 28l-25 3q-5 6 -3 15t9 13q74 -3 138 -3q66 0 132 3q5 -4 5 -14.5t-7 -13.5zM539 763l-140 -73q-9 0 -14 5.5t-4 13.5l164 134q28 23 49 0l117 -136
q0 -15 -21 -17l-114 73q-17 10 -37 0z" />
    <glyph glyph-name="Udieresis" unicode="&#xdc;" horiz-adv-x="726" 
d="M458 635l-28 -4q-34 -5 -49 -24t-38 -91l-72 -230q-20 -63 -23 -117q0 -140 141 -140q156 0 228 239l48 150q30 102 41 160q5 26 -4.5 37.5t-41.5 15.5l-26 4q-12 17 4 28q62 -3 120 -3q51 0 111 3q6 -5 6 -14t-6 -14l-26 -5q-49 -8 -69 -45q-13 -24 -58 -167l-49 -156
q-48 -151 -115 -209q-36 -33 -89 -51t-106 -18q-106 0 -165.5 43.5t-56.5 132.5q2 48 20 106l78 250q22 65 18 88t-42 28l-25 3q-5 6 -3 15t9 13q74 -3 138 -3q66 0 132 3q5 -4 5 -14.5t-7 -13.5zM461 815q25 0 39 -16t10 -41q-3 -24 -20.5 -40t-41.5 -16t-37.5 16t-9.5 41
q4 24 21 40t39 16zM661 815q25 0 39 -16t10 -41q-3 -24 -20.5 -40t-41.5 -16t-37.5 16t-9.5 41q4 24 21 40t39 16z" />
    <glyph glyph-name="Yacute" unicode="&#xdd;" horiz-adv-x="588" 
d="M382 32l36 -6q5 -3 3.5 -14t-7.5 -15q-92 3 -148 3q-66 0 -142 -3q-6 4 -5.5 15t7.5 14l38 6q34 2 47.5 20.5t36.5 91.5l16 51q12 40 14 63t-5 63q-3 19 -22.5 114.5t-24.5 122.5q-8 38 -18 52.5t-35 18.5l-26 5q-6 6 -4.5 15.5t9.5 13.5q50 -2 65 -2q20 -1 58 -1
q70 0 122 4q7 -4 7 -14.5t-6 -15.5l-33 -6q-27 -4 -34 -12.5t-3 -31.5q27 -144 52 -262l138 175q49 60 75 100q7 11 8 16t-4 9t-19 7l-25 5q-7 5 -6.5 15t8.5 14q66 -3 111 -3q56 0 99 3q6 -4 5.5 -14.5t-7.5 -14.5l-25 -5q-31 -6 -52.5 -20t-56.5 -53q-46 -50 -180 -216
q-28 -36 -40 -57t-29 -72l-21 -67q-23 -68 -19 -88t42 -24zM659 762l-207 -71q-6 2 -9.5 8t-2.5 13l177 120q21 14 31 14q17 0 31 -26q14 -27 11 -37q-6 -12 -31 -21z" />
    <glyph glyph-name="Thorn" unicode="&#xde;" horiz-adv-x="582" 
d="M129 144l116 372q12 36 16 54.5t2.5 33t-11.5 19.5t-30 7l-30 4q-4 6 -2 15.5t8 13.5q80 -3 143 -3q67 0 131 3q6 -4 5.5 -15t-7.5 -14l-26 -4q-38 -5 -52 -23t-34 -87h37q106 0 161.5 -42t55.5 -117q0 -92 -78 -141t-185 -51q-22 0 -28 2q-6 3 -6.5 10.5t4.5 13.5
q48 11 66 19q47 21 77.5 65.5t30.5 93.5q0 54 -31 81t-81 27q-24 0 -31.5 -5.5t-14.5 -26.5l-95 -305q-12 -36 -16 -54.5t-2.5 -33t11.5 -19.5t30 -7l30 -4q4 -6 2 -15.5t-8 -13.5q-80 3 -143 3q-66 0 -131 -3q-6 4 -5.5 15t7.5 14l28 4q34 4 48.5 23t37.5 91z" />
    <glyph glyph-name="germandbls" unicode="&#xdf;" horiz-adv-x="499" 
d="M522 715q61 0 97.5 -28.5t36.5 -74.5q0 -19 -10 -37t-23 -31t-36.5 -28.5t-38 -23.5t-41.5 -21.5l-33 -16.5q-64 -35 -64 -90q0 -32 32 -106q28 -66 28 -108q0 -70 -59 -121q-51 -43 -95 -43q-32 0 -51 19.5t-19 41.5q0 20 14 36q13 11 26 0q38 -40 64 -40q16 0 30 10.5
t14 32.5q0 21 -38 107q-38 84 -38 124q0 53 33.5 90t113.5 86q47 29 68 61.5t21 56.5q0 30 -21.5 47.5t-48.5 17.5q-68 0 -128.5 -76t-103.5 -202q-34 -99 -76.5 -298t-65.5 -247q-25 -54 -70.5 -88t-97.5 -34q-38 0 -63 19.5t-25 45.5q0 20 13 33t31 16q12 4 24 -18
q30 -51 60 -51q19 0 33 36q15 42 47 210q46 246 94 382q59 171 192 260q83 51 174 51z" />
    <glyph glyph-name="agrave" unicode="&#xe0;" horiz-adv-x="470" 
d="M383 368l26 56q8 4 20 4q44 0 56 -24q-58 -136 -129 -334q-7 -18 5 -18t40.5 17.5t59.5 47.5q16 0 16 -19q-35 -45 -88 -78.5t-98 -33.5q-16 0 -24.5 10.5t-8.5 21.5q0 12 10 41l36 95h-3q-52 -71 -118 -119.5t-110 -48.5q-23 0 -38.5 17.5t-15.5 42.5q0 34 32 100.5
t85 126.5q56 63 125 99q41 22 78 22q7 0 23 -7q12 -7 21 -19zM313 352q-30 0 -70 -43q-42 -46 -75.5 -118.5t-34.5 -121.5q0 -20 12 -20q22 0 102 80q35 37 66.5 93.5t43.5 94.5q-12 35 -44 35zM348 441l-132 143q-25 27 -25 38q0 15 23 33q17 14 34 14t31 -30l91 -182
q-3 -17 -22 -16z" />
    <glyph glyph-name="aacute" unicode="&#xe1;" horiz-adv-x="470" 
d="M383 368l26 56q8 4 20 4q44 0 56 -24q-58 -136 -129 -334q-7 -18 5 -18t40.5 17.5t59.5 47.5q16 0 16 -19q-35 -45 -88 -78.5t-98 -33.5q-16 0 -24.5 10.5t-8.5 21.5q0 12 10 41l36 95h-3q-52 -71 -118 -119.5t-110 -48.5q-23 0 -38.5 17.5t-15.5 42.5q0 34 32 100.5
t85 126.5q56 63 125 99q41 22 78 22q7 0 23 -7q12 -7 21 -19zM313 352q-30 0 -70 -43q-42 -46 -75.5 -118.5t-34.5 -121.5q0 -20 12 -20q22 0 102 80q35 37 66.5 93.5t43.5 94.5q-12 35 -44 35zM482 584l-132 -143q-19 -1 -22 16l91 182q14 30 31 30t34 -14q23 -18 23 -33
q0 -11 -25 -38z" />
    <glyph glyph-name="acircumflex" unicode="&#xe2;" horiz-adv-x="470" 
d="M383 368l26 56q8 4 20 4q44 0 56 -24q-58 -136 -129 -334q-7 -18 5 -18t40.5 17.5t59.5 47.5q16 0 16 -19q-35 -45 -88 -78.5t-98 -33.5q-16 0 -24.5 10.5t-8.5 21.5q0 12 10 41l36 95h-3q-52 -71 -118 -119.5t-110 -48.5q-23 0 -38.5 17.5t-15.5 42.5q0 34 32 100.5
t85 126.5q56 63 125 99q41 22 78 22q7 0 23 -7q12 -7 21 -19zM313 352q-30 0 -70 -43q-42 -46 -75.5 -118.5t-34.5 -121.5q0 -20 12 -20q22 0 102 80q35 37 66.5 93.5t43.5 94.5q-12 35 -44 35zM420 656l67 -198q-6 -15 -25 -13l-72 119q-9 13 -14.5 12.5t-17.5 -12.5
l-115 -121q-21 -2 -21 18l144 194q17 24 32 24q14 0 22 -23z" />
    <glyph glyph-name="atilde" unicode="&#xe3;" horiz-adv-x="470" 
d="M383 368l26 56q8 4 20 4q44 0 56 -24q-58 -136 -129 -334q-7 -18 5 -18t40.5 17.5t59.5 47.5q16 0 16 -19q-35 -45 -88 -78.5t-98 -33.5q-16 0 -24.5 10.5t-8.5 21.5q0 12 10 41l36 95h-3q-52 -71 -118 -119.5t-110 -48.5q-23 0 -38.5 17.5t-15.5 42.5q0 34 32 100.5
t85 126.5q56 63 125 99q41 22 78 22q7 0 23 -7q12 -7 21 -19zM313 352q-30 0 -70 -43q-42 -46 -75.5 -118.5t-34.5 -121.5q0 -20 12 -20q22 0 102 80q35 37 66.5 93.5t43.5 94.5q-12 35 -44 35zM295 567h111q45 0 62 16q19 19 26 36q4 4 12 3t11 -7q-17 -56 -44 -85
q-18 -18 -57 -18h-111q-44 0 -66 -22q-16 -18 -28 -42q-14 -9 -23 6q16 63 42 91q21 22 65 22z" />
    <glyph glyph-name="adieresis" unicode="&#xe4;" horiz-adv-x="470" 
d="M383 368l26 56q8 4 20 4q44 0 56 -24q-58 -136 -129 -334q-7 -18 5 -18t40.5 17.5t59.5 47.5q16 0 16 -19q-35 -45 -88 -78.5t-98 -33.5q-16 0 -24.5 10.5t-8.5 21.5q0 12 10 41l36 95h-3q-52 -71 -118 -119.5t-110 -48.5q-23 0 -38.5 17.5t-15.5 42.5q0 34 32 100.5
t85 126.5q56 63 125 99q41 22 78 22q7 0 23 -7q12 -7 21 -19zM313 352q-30 0 -70 -43q-42 -46 -75.5 -118.5t-34.5 -121.5q0 -20 12 -20q22 0 102 80q35 37 66.5 93.5t43.5 94.5q-12 35 -44 35zM274 593q25 0 39 -16t10 -41q-3 -24 -20.5 -40t-41.5 -16t-37.5 16t-9.5 41
q4 24 21 40t39 16zM469 593q25 0 39 -16t10 -41q-3 -24 -20.5 -40t-41.5 -16t-37.5 16t-9.5 41q4 24 21 40t39 16z" />
    <glyph glyph-name="aring" unicode="&#xe5;" horiz-adv-x="470" 
d="M383 368l26 56q8 4 20 4q44 0 56 -24q-58 -136 -129 -334q-7 -18 5 -18t40.5 17.5t59.5 47.5q16 0 16 -19q-35 -45 -88 -78.5t-98 -33.5q-16 0 -24.5 10.5t-8.5 21.5q0 12 10 41l36 95h-3q-52 -71 -118 -119.5t-110 -48.5q-23 0 -38.5 17.5t-15.5 42.5q0 34 32 100.5
t85 126.5q56 63 125 99q41 22 78 22q7 0 23 -7q12 -7 21 -19zM313 352q-30 0 -70 -43q-42 -46 -75.5 -118.5t-34.5 -121.5q0 -20 12 -20q22 0 102 80q35 37 66.5 93.5t43.5 94.5q-12 35 -44 35zM261 568q0 42 30.5 73t78.5 31t78.5 -31t30.5 -73t-30.5 -73.5t-78.5 -31.5
t-78.5 31.5t-30.5 73.5zM318 568q0 -29 14 -48t38 -19t38 19t14 48t-14 47.5t-38 18.5t-38 -18.5t-14 -47.5z" />
    <glyph glyph-name="ae" unicode="&#xe6;" horiz-adv-x="525" 
d="M86 -14q-27 0 -46.5 16.5t-19.5 46.5q0 37 25.5 85t61.5 84q78 78 214 138q86 52 140 52q45 0 68.5 -23t23.5 -56q0 -47 -49 -91t-162 -109q2 -43 20.5 -63t42.5 -20q16 0 33 10t26 19t26 28q21 4 24 -14q-28 -49 -72.5 -76t-87.5 -27q-75 0 -97 79q-41 -33 -90 -56
t-81 -23zM129 75q0 -27 23 -27q36 0 96 53q2 112 60 208h-4q-71 -36 -123 -112.5t-52 -121.5zM469 339q0 33 -29 33q-38 0 -68 -68t-32 -138q60 45 94.5 92.5t34.5 80.5z" />
    <glyph glyph-name="ccedilla" unicode="&#xe7;" horiz-adv-x="360" 
d="M76 -96l62 81l-2 2q-1 -1 -8 -1q-41 0 -64.5 28.5t-23.5 81.5q0 52 30.5 118.5t82.5 117.5q77 76 159 76q39 0 63 -19t23 -49q0 -26 -19.5 -40.5t-40.5 -14.5q-28 0 -30 28q0 3 -0.5 14t-1.5 15.5t-3.5 12t-7.5 10.5t-12 3q-35 0 -74 -64q-63 -100 -63 -196q0 -60 41 -60
q47 0 107 61q21 0 18 -20q-48 -64 -122 -91l-35 -48q-6 -9 -4.5 -12t12.5 -11q46 -36 46 -77q0 -39 -35 -64t-82 -25q-33 0 -52 11t-19 31q0 13 8.5 22t21.5 9t33 -17.5t29 -17.5t18 8.5t9 23.5q0 12 -12.5 27t-21 21t-27.5 19z" />
    <glyph glyph-name="egrave" unicode="&#xe8;" horiz-adv-x="370" 
d="M136 -14q-46 0 -70 32t-24 77q0 61 37.5 134.5t104.5 124.5q72 54 140 54q34 0 57 -21.5t23 -47.5q0 -102 -247 -169q-9 -25 -9 -65q0 -57 44 -57q49 0 118 63q8 0 13 -6.5t3 -13.5q-76 -105 -190 -105zM297 372q-24 0 -60 -40q-49 -51 -72 -128q73 26 114 68
q17 17 27 39t10 36q0 25 -19 25zM318 441l-132 143q-25 27 -25 38q0 15 23 33q17 14 34 14t31 -30l91 -182q-3 -17 -22 -16z" />
    <glyph glyph-name="eacute" unicode="&#xe9;" horiz-adv-x="370" 
d="M136 -14q-46 0 -70 32t-24 77q0 61 37.5 134.5t104.5 124.5q72 54 140 54q34 0 57 -21.5t23 -47.5q0 -102 -247 -169q-9 -25 -9 -65q0 -57 44 -57q49 0 118 63q8 0 13 -6.5t3 -13.5q-76 -105 -190 -105zM297 372q-24 0 -60 -40q-49 -51 -72 -128q73 26 114 68
q17 17 27 39t10 36q0 25 -19 25zM432 584l-132 -143q-19 -1 -22 16l91 182q14 30 31 30t34 -14q23 -18 23 -33q0 -11 -25 -38z" />
    <glyph glyph-name="ecircumflex" unicode="&#xea;" horiz-adv-x="370" 
d="M136 -14q-46 0 -70 32t-24 77q0 61 37.5 134.5t104.5 124.5q72 54 140 54q34 0 57 -21.5t23 -47.5q0 -102 -247 -169q-9 -25 -9 -65q0 -57 44 -57q49 0 118 63q8 0 13 -6.5t3 -13.5q-76 -105 -190 -105zM297 372q-24 0 -60 -40q-49 -51 -72 -128q73 26 114 68
q17 17 27 39t10 36q0 25 -19 25zM356 656l67 -198q-6 -15 -25 -13l-72 119q-9 13 -14.5 12.5t-17.5 -12.5l-115 -121q-21 -2 -21 18l144 194q17 24 32 24q14 0 22 -23z" />
    <glyph glyph-name="edieresis" unicode="&#xeb;" horiz-adv-x="370" 
d="M136 -14q-46 0 -70 32t-24 77q0 61 37.5 134.5t104.5 124.5q72 54 140 54q34 0 57 -21.5t23 -47.5q0 -102 -247 -169q-9 -25 -9 -65q0 -57 44 -57q49 0 118 63q8 0 13 -6.5t3 -13.5q-76 -105 -190 -105zM297 372q-24 0 -60 -40q-49 -51 -72 -128q73 26 114 68
q17 17 27 39t10 36q0 25 -19 25zM224 593q25 0 39 -16t10 -41q-3 -24 -20.5 -40t-41.5 -16t-37.5 16t-9.5 41q4 24 21 40t39 16zM419 593q25 0 39 -16t10 -41q-3 -24 -20.5 -40t-41.5 -16t-37.5 16t-9.5 41q4 24 21 40t39 16z" />
    <glyph glyph-name="igrave" unicode="&#xec;" horiz-adv-x="291" 
d="M280 337l-112 -262q-8 -19 3 -19q12 0 45 23t55 46q8 0 13.5 -6t3.5 -14q-25 -38 -86.5 -78.5t-113.5 -40.5q-12 0 -22 11.5t-10 19.5q0 17 9 39l111 263q6 16 -2 16q-9 0 -35.5 -16.5t-50.5 -37.5q-7 0 -11.5 7t-2.5 13q39 45 94 76t90 31q10 0 20.5 -8.5t12.5 -19.5
q3 -13 -11 -43zM249 441l-132 143q-25 27 -25 38q0 15 23 33q17 14 34 14t31 -30l91 -182q-3 -17 -22 -16z" />
    <glyph glyph-name="iacute" unicode="&#xed;" horiz-adv-x="291" 
d="M280 337l-112 -262q-8 -19 3 -19q12 0 45 23t55 46q8 0 13.5 -6t3.5 -14q-25 -38 -86.5 -78.5t-113.5 -40.5q-12 0 -22 11.5t-10 19.5q0 17 9 39l111 263q6 16 -2 16q-9 0 -35.5 -16.5t-50.5 -37.5q-7 0 -11.5 7t-2.5 13q39 45 94 76t90 31q10 0 20.5 -8.5t12.5 -19.5
q3 -13 -11 -43zM374 584l-132 -143q-19 -1 -22 16l91 182q14 30 31 30t34 -14q23 -18 23 -33q0 -11 -25 -38z" />
    <glyph glyph-name="icircumflex" unicode="&#xee;" horiz-adv-x="291" 
d="M280 337l-112 -262q-8 -19 3 -19q12 0 45 23t55 46q8 0 13.5 -6t3.5 -14q-25 -38 -86.5 -78.5t-113.5 -40.5q-12 0 -22 11.5t-10 19.5q0 17 9 39l111 263q6 16 -2 16q-9 0 -35.5 -16.5t-50.5 -37.5q-7 0 -11.5 7t-2.5 13q39 45 94 76t90 31q10 0 20.5 -8.5t12.5 -19.5
q3 -13 -11 -43zM297 656l67 -198q-6 -15 -25 -13l-72 119q-9 13 -14.5 12.5t-17.5 -12.5l-115 -121q-21 -2 -21 18l144 194q17 24 32 24q14 0 22 -23z" />
    <glyph glyph-name="idieresis" unicode="&#xef;" horiz-adv-x="291" 
d="M280 337l-112 -262q-8 -19 3 -19q12 0 45 23t55 46q8 0 13.5 -6t3.5 -14q-25 -38 -86.5 -78.5t-113.5 -40.5q-12 0 -22 11.5t-10 19.5q0 17 9 39l111 263q6 16 -2 16q-9 0 -35.5 -16.5t-50.5 -37.5q-7 0 -11.5 7t-2.5 13q39 45 94 76t90 31q10 0 20.5 -8.5t12.5 -19.5
q3 -13 -11 -43zM170 593q25 0 39 -16t10 -41q-3 -24 -20.5 -40t-41.5 -16t-37.5 16t-9.5 41q4 24 21 40t39 16zM365 593q25 0 39 -16t10 -41q-3 -24 -20.5 -40t-41.5 -16t-37.5 16t-9.5 41q4 24 21 40t39 16z" />
    <glyph glyph-name="eth" unicode="&#xf0;" horiz-adv-x="434" 
d="M170 -14q-63 0 -95 38.5t-29 102.5q2 50 31 111.5t76 106.5q67 63 135 63q24 0 50 -10q2 26 -5 64.5t-19 64.5l-132 -60q-9 3 -13 17t1 21l131 61q-14 41 -48 78q-32 32 -75 47q-5 16 10 24q52 -9 92 -34q58 -38 86 -87l130 59q10 -3 13.5 -16.5t-1.5 -22.5l-120 -54
q48 -88 46 -213q-2 -79 -30 -157t-78 -129q-71 -75 -156 -75zM234 329q-35 -47 -65 -123t-31 -129q0 -26 10.5 -40.5t27.5 -14.5q33 0 76 59q28 38 54.5 112.5t27.5 123.5q0 55 -36 55q-32 0 -64 -43z" />
    <glyph glyph-name="ntilde" unicode="&#xf1;" horiz-adv-x="524" 
d="M444 408q31 0 45.5 -16t14.5 -40q0 -32 -18 -79q-10 -29 -44 -108.5t-38 -89.5q-8 -20 2 -20q12 0 41.5 22t50.5 46q9 1 13.5 -4t4.5 -14q-28 -46 -82.5 -82.5t-109.5 -36.5q-13 0 -23.5 10.5t-10.5 21.5q0 17 18 59q30 69 84 202q16 40 16 60q0 17 -14 17t-43.5 -24
t-62.5 -65q-68 -88 -152 -265q-8 -16 -34 -16q-19 0 -34.5 8t-9.5 26q2 6 26 71.5t50 136t30 81.5q11 30 -4 30q-30 0 -86 -52q-16 0 -16 16q26 41 75 73t97 32q25 0 32 -18t-2 -34l-61 -155h4q40 56 72.5 95.5t80.5 75.5t88 36zM307 567h111q45 0 62 16q19 19 26 36
q4 4 12 3t11 -7q-17 -56 -44 -85q-18 -18 -57 -18h-111q-44 0 -66 -22q-16 -18 -28 -42q-14 -9 -23 6q16 63 42 91q21 22 65 22z" />
    <glyph glyph-name="ograve" unicode="&#xf2;" horiz-adv-x="436" 
d="M177 22q35 0 76 59q29 42 56.5 116.5t27.5 120.5q0 54 -32 54q-30 0 -65 -44q-37 -48 -68 -124.5t-31 -129.5q0 -23 9.5 -37.5t26.5 -14.5zM49 117q2 56 31 119.5t74 104.5q71 67 152 67q63 0 94 -38t29 -98q0 -51 -25.5 -111.5t-72.5 -105.5q-70 -69 -158 -69
q-61 0 -93.5 37t-30.5 94zM321 441l-132 143q-25 27 -25 38q0 15 23 33q17 14 34 14t31 -30l91 -182q-3 -17 -22 -16z" />
    <glyph glyph-name="oacute" unicode="&#xf3;" horiz-adv-x="436" 
d="M177 22q35 0 76 59q29 42 56.5 116.5t27.5 120.5q0 54 -32 54q-30 0 -65 -44q-37 -48 -68 -124.5t-31 -129.5q0 -23 9.5 -37.5t26.5 -14.5zM49 117q2 56 31 119.5t74 104.5q71 67 152 67q63 0 94 -38t29 -98q0 -51 -25.5 -111.5t-72.5 -105.5q-70 -69 -158 -69
q-61 0 -93.5 37t-30.5 94zM445 584l-132 -143q-19 -1 -22 16l91 182q14 30 31 30t34 -14q23 -18 23 -33q0 -11 -25 -38z" />
    <glyph glyph-name="ocircumflex" unicode="&#xf4;" horiz-adv-x="436" 
d="M177 22q35 0 76 59q29 42 56.5 116.5t27.5 120.5q0 54 -32 54q-30 0 -65 -44q-37 -48 -68 -124.5t-31 -129.5q0 -23 9.5 -37.5t26.5 -14.5zM49 117q2 56 31 119.5t74 104.5q71 67 152 67q63 0 94 -38t29 -98q0 -51 -25.5 -111.5t-72.5 -105.5q-70 -69 -158 -69
q-61 0 -93.5 37t-30.5 94zM374 656l67 -198q-6 -15 -25 -13l-72 119q-9 13 -14.5 12.5t-17.5 -12.5l-115 -121q-21 -2 -21 18l144 194q17 24 32 24q14 0 22 -23z" />
    <glyph glyph-name="otilde" unicode="&#xf5;" horiz-adv-x="436" 
d="M177 22q35 0 76 59q29 42 56.5 116.5t27.5 120.5q0 54 -32 54q-30 0 -65 -44q-37 -48 -68 -124.5t-31 -129.5q0 -23 9.5 -37.5t26.5 -14.5zM49 117q2 56 31 119.5t74 104.5q71 67 152 67q63 0 94 -38t29 -98q0 -51 -25.5 -111.5t-72.5 -105.5q-70 -69 -158 -69
q-61 0 -93.5 37t-30.5 94zM258 567h111q45 0 62 16q19 19 26 36q4 4 12 3t11 -7q-17 -56 -44 -85q-18 -18 -57 -18h-111q-44 0 -66 -22q-16 -18 -28 -42q-14 -9 -23 6q16 63 42 91q21 22 65 22z" />
    <glyph glyph-name="odieresis" unicode="&#xf6;" horiz-adv-x="436" 
d="M177 22q35 0 76 59q29 42 56.5 116.5t27.5 120.5q0 54 -32 54q-30 0 -65 -44q-37 -48 -68 -124.5t-31 -129.5q0 -23 9.5 -37.5t26.5 -14.5zM49 117q2 56 31 119.5t74 104.5q71 67 152 67q63 0 94 -38t29 -98q0 -51 -25.5 -111.5t-72.5 -105.5q-70 -69 -158 -69
q-61 0 -93.5 37t-30.5 94zM242 593q25 0 39 -16t10 -41q-3 -24 -20.5 -40t-41.5 -16t-37.5 16t-9.5 41q4 24 21 40t39 16zM437 593q25 0 39 -16t10 -41q-3 -24 -20.5 -40t-41.5 -16t-37.5 16t-9.5 41q4 24 21 40t39 16z" />
    <glyph glyph-name="divide" unicode="&#xf7;" 
d="M264 124q20 0 35 -15t15 -35q0 -22 -15 -37t-35 -15q-22 0 -37 15t-15 37q0 20 15.5 35t36.5 15zM264 389q20 0 35 -15t15 -35q0 -22 -15 -37t-35 -15q-22 0 -37 15t-15 37q0 20 15.5 35t36.5 15zM459 237v-63h-385v63h385z" />
    <glyph glyph-name="oslash" unicode="&#xf8;" horiz-adv-x="436" 
d="M344 324l-199 -286q11 -16 32 -16q42 0 85 59q32 46 57.5 114.5t25.5 115.5q0 8 -1 13zM412 423l-26 -40q45 -34 43 -112q0 -50 -25.5 -110t-72.5 -106q-70 -69 -158 -69q-33 0 -56 12l-34 -48q-8 -2 -16 4.5t-9 15.5l31 44q-42 37 -40 103q2 56 30.5 119t76.5 108
q69 64 151 64q26 0 50 -8l28 40q8 2 16 -2.5t11 -14.5zM136 79l194 281q-11 12 -29 12q-34 0 -83 -63q-29 -37 -55.5 -105.5t-28.5 -122.5z" />
    <glyph glyph-name="ugrave" unicode="&#xf9;" horiz-adv-x="520" 
d="M80 83l89 227q10 26 -3 26q-27 0 -92 -67q-19 4 -16 20q29 41 84.5 80t105.5 39q15 0 26.5 -11t11.5 -25q0 -11 -6 -27l-103 -257q-11 -28 7 -28q16 0 73 54q90 87 188 290q11 4 30 4q16 0 31 -6t19 -14q-2 -5 -48 -122.5t-70 -182.5q-8 -27 5 -27t43.5 24.5t52.5 48.5
q18 0 18 -18q-23 -41 -84 -83t-110 -42q-17 0 -27 13.5t-3 30.5l62 161h-2q-56 -75 -128.5 -140t-117.5 -65q-20 0 -34 14.5t-14 33.5q0 18 12 49zM353 441l-132 143q-25 27 -25 38q0 15 23 33q17 14 34 14t31 -30l91 -182q-3 -17 -22 -16z" />
    <glyph glyph-name="uacute" unicode="&#xfa;" horiz-adv-x="520" 
d="M80 83l89 227q10 26 -3 26q-27 0 -92 -67q-19 4 -16 20q29 41 84.5 80t105.5 39q15 0 26.5 -11t11.5 -25q0 -11 -6 -27l-103 -257q-11 -28 7 -28q16 0 73 54q90 87 188 290q11 4 30 4q16 0 31 -6t19 -14q-2 -5 -48 -122.5t-70 -182.5q-8 -27 5 -27t43.5 24.5t52.5 48.5
q18 0 18 -18q-23 -41 -84 -83t-110 -42q-17 0 -27 13.5t-3 30.5l62 161h-2q-56 -75 -128.5 -140t-117.5 -65q-20 0 -34 14.5t-14 33.5q0 18 12 49zM492 584l-132 -143q-19 -1 -22 16l91 182q14 30 31 30t34 -14q23 -18 23 -33q0 -11 -25 -38z" />
    <glyph glyph-name="ucircumflex" unicode="&#xfb;" horiz-adv-x="520" 
d="M80 83l89 227q10 26 -3 26q-27 0 -92 -67q-19 4 -16 20q29 41 84.5 80t105.5 39q15 0 26.5 -11t11.5 -25q0 -11 -6 -27l-103 -257q-11 -28 7 -28q16 0 73 54q90 87 188 290q11 4 30 4q16 0 31 -6t19 -14q-2 -5 -48 -122.5t-70 -182.5q-8 -27 5 -27t43.5 24.5t52.5 48.5
q18 0 18 -18q-23 -41 -84 -83t-110 -42q-17 0 -27 13.5t-3 30.5l62 161h-2q-56 -75 -128.5 -140t-117.5 -65q-20 0 -34 14.5t-14 33.5q0 18 12 49zM421 656l67 -198q-6 -15 -25 -13l-72 119q-9 13 -14.5 12.5t-17.5 -12.5l-115 -121q-21 -2 -21 18l144 194q17 24 32 24
q14 0 22 -23z" />
    <glyph glyph-name="udieresis" unicode="&#xfc;" horiz-adv-x="520" 
d="M80 83l89 227q10 26 -3 26q-27 0 -92 -67q-19 4 -16 20q29 41 84.5 80t105.5 39q15 0 26.5 -11t11.5 -25q0 -11 -6 -27l-103 -257q-11 -28 7 -28q16 0 73 54q90 87 188 290q11 4 30 4q16 0 31 -6t19 -14q-2 -5 -48 -122.5t-70 -182.5q-8 -27 5 -27t43.5 24.5t52.5 48.5
q18 0 18 -18q-23 -41 -84 -83t-110 -42q-17 0 -27 13.5t-3 30.5l62 161h-2q-56 -75 -128.5 -140t-117.5 -65q-20 0 -34 14.5t-14 33.5q0 18 12 49zM289 593q25 0 39 -16t10 -41q-3 -24 -20.5 -40t-41.5 -16t-37.5 16t-9.5 41q4 24 21 40t39 16zM484 593q25 0 39 -16t10 -41
q-3 -24 -20.5 -40t-41.5 -16t-37.5 16t-9.5 41q4 24 21 40t39 16z" />
    <glyph glyph-name="yacute" unicode="&#xfd;" horiz-adv-x="398" 
d="M168 408q38 0 57.5 -47.5t21.5 -128.5q2 -116 -13 -208h4q49 83 88 224q19 71 22 122q2 36 29 36q20 0 37 -10q13 -9 13 -26q0 -14 -10 -52t-39 -107.5t-69 -138.5q-97 -165 -170 -245q-87 -96 -168 -96q-26 0 -45 15.5t-20 37.5q0 25 14.5 40.5t35.5 15.5q18 0 34 -21
q21 -27 35 -27q31 0 56 25q41 41 61 120q23 83 17 220q-3 172 -37 172q-25 0 -61 -77q-8 -4 -16 -1t-10 11q18 57 52 101.5t81 44.5zM421 584l-132 -143q-19 -1 -22 16l91 182q14 30 31 30t34 -14q23 -18 23 -33q0 -11 -25 -38z" />
    <glyph glyph-name="thorn" unicode="&#xfe;" horiz-adv-x="476" 
d="M468 263q0 -107 -104 -204q-39 -37 -87.5 -55t-88.5 -18q-10 0 -34 8q-10 -2 -16 -18l-43 -127q-15 -41 -12.5 -57t28.5 -19l42 -4q6 -4 4.5 -14t-10.5 -13q-131 0 -248 -10q-7 4 -8.5 14t4.5 15l28 4q33 6 45.5 21t28.5 61l173 488q-38 -7 -100 -40q-9 1 -13 9.5t1 14.5
q59 44 128 63l53 146q13 40 12 52.5t-15 20.5l-23 12q-7 11 2 20q21 8 73 18.5t87 13.5q6 -6 6 -8q-5 -13 -22.5 -60t-33.5 -93l-40 -114q7 2 29 2q69 0 111.5 -33t42.5 -96zM272 350l-98 -273q-7 -20 3 -35q12 -20 30 -20q16 0 42 16t49 49q64 91 64 188q0 38 -20 57.5
t-48 19.5q-10 0 -22 -2z" />
    <glyph glyph-name="ydieresis" unicode="&#xff;" horiz-adv-x="398" 
d="M168 408q38 0 57.5 -47.5t21.5 -128.5q2 -116 -13 -208h4q49 83 88 224q19 71 22 122q2 36 29 36q20 0 37 -10q13 -9 13 -26q0 -14 -10 -52t-39 -107.5t-69 -138.5q-97 -165 -170 -245q-87 -96 -168 -96q-26 0 -45 15.5t-20 37.5q0 25 14.5 40.5t35.5 15.5q18 0 34 -21
q21 -27 35 -27q31 0 56 25q41 41 61 120q23 83 17 220q-3 172 -37 172q-25 0 -61 -77q-8 -4 -16 -1t-10 11q18 57 52 101.5t81 44.5zM213 593q25 0 39 -16t10 -41q-3 -24 -20.5 -40t-41.5 -16t-37.5 16t-9.5 41q4 24 21 40t39 16zM408 593q25 0 39 -16t10 -41
q-3 -24 -20.5 -40t-41.5 -16t-37.5 16t-9.5 41q4 24 21 40t39 16z" />
    <glyph glyph-name="dotlessi" unicode="&#x131;" horiz-adv-x="291" 
d="M280 337l-112 -262q-8 -19 3 -19q12 0 45 23t55 46q8 0 13.5 -6t3.5 -14q-25 -38 -86.5 -78.5t-113.5 -40.5q-12 0 -22 11.5t-10 19.5q0 17 9 39l111 263q6 16 -2 16q-9 0 -35.5 -16.5t-50.5 -37.5q-7 0 -11.5 7t-2.5 13q39 45 94 76t90 31q10 0 20.5 -8.5t12.5 -19.5
q3 -13 -11 -43z" />
    <glyph glyph-name="Lslash" unicode="&#x141;" horiz-adv-x="564" 
d="M467 428l-161 -93l-54 -171q-24 -79 -15 -100q6 -14 25.5 -19.5t65.5 -5.5q82 0 121.5 18t89.5 91q9 5 19 3t13 -9q-11 -33 -33.5 -79t-37.5 -66q-66 2 -114 2q-41 1 -121 1h-116q-65 0 -129 -3q-6 4 -5.5 15t7.5 14l28 4q34 4 48 23t36 91l35 112l-96 -56
q-12 5 -17.5 17.5t-0.5 22.5l134 78l63 198q22 65 18 86t-41 27l-26 5q-6 4 -4.5 15t10.5 14q72 -3 135 -3q57 0 135 3q6 -4 5.5 -15t-7.5 -14l-28 -4q-37 -5 -50.5 -23t-35.5 -91l-38 -119l124 71q25 -13 18 -40z" />
    <glyph glyph-name="lslash" unicode="&#x142;" horiz-adv-x="272" 
d="M382 410l-146 -94l-80 -234q-14 -40 4 -40q27 0 109 96q21 0 18 -18q-28 -54 -74.5 -94t-113.5 -40q-27 0 -39.5 11t-12.5 25q0 23 18 74l48 140h-2l-79 -50q-9 3 -14.5 13.5t-3.5 20.5l120 77l96 282q13 39 11.5 51.5t-15.5 20.5l-23 12q-7 11 2 20q21 8 73 18.5
t87 13.5q1 0 3.5 -3t2.5 -5q-5 -15 -21 -61t-32 -91l-61 -176l2 -2l103 67q10 -4 16 -14t4 -20z" />
    <glyph glyph-name="OE" unicode="&#x152;" horiz-adv-x="1012" 
d="M685 0l-45 -1q-36 0 -100.5 -4t-100.5 -4q-89 0 -155 22.5t-103.5 61.5t-55.5 86.5t-18 103.5q0 89 44.5 171t118.5 135q125 95 320 95q65 0 114 -3q5 0 40.5 -1.5t53.5 -1.5h77h84q91 0 143 4q-18 -37 -46 -145q-5 -6 -17 -6.5t-14 6.5q3 38 -0.5 56t-18.5 28
q-31 18 -96 18h-66q-22 0 -29 -5.5t-15 -29.5l-60 -192q-6 -21 -3.5 -25t23.5 -4h54q55 0 76 9.5t38 43.5l14 27q6 6 18 5t14 -7q-5 -13 -17 -48.5t-19 -53.5q-18 -63 -27 -101q-6 -5 -17.5 -5t-14.5 5l2 26q3 36 -13 45t-68 9h-52q-21 0 -27 -4.5t-12 -23.5l-41 -128
q-25 -79 -15 -102q6 -12 26.5 -17.5t74.5 -5.5q80 0 118.5 18t90.5 91q6 5 17 3t15 -9q-38 -105 -73 -145q-98 3 -237 3zM543 114l140 448q8 26 5 36.5t-19 16.5q-33 12 -79 12q-85 0 -156 -35t-115 -91t-68 -120.5t-24 -126.5q0 -107 53.5 -165.5t153.5 -58.5q41 0 67 16
t42 68z" />
    <glyph glyph-name="oe" unicode="&#x153;" horiz-adv-x="613" 
d="M303 370q-30 0 -62 -41q-38 -48 -68 -124t-30 -130q0 -53 36 -53q34 0 74 59q28 41 55 115.5t27 120.5q2 22 -6 37.5t-26 15.5zM303 408q39 0 64 -23t29 -63q11 11 23 21q80 65 148 65q34 0 57 -21.5t23 -47.5q0 -103 -250 -169q-10 -23 -10 -65q0 -25 12.5 -41t35.5 -16
q49 0 118 63q7 0 12 -6t4 -14q-76 -105 -182 -105q-63 0 -86 66q-62 -66 -132 -66q-57 0 -88.5 37t-31.5 98q2 55 29.5 117.5t76.5 106.5q69 63 148 63zM407 208q65 16 111 64q17 17 27 39t10 36q0 25 -19 25q-24 0 -60 -40q-52 -54 -69 -124z" />
    <glyph glyph-name="Scaron" unicode="&#x160;" horiz-adv-x="498" 
d="M235 -16q-64 0 -114.5 22t-64.5 55q-10 57 4 135q4 5 15 4.5t16 -6.5q11 -63 36 -104q41 -67 123 -67q52 0 92 34t40 95q0 78 -105 155q-99 73 -99 168q0 90 65.5 146.5t163.5 54.5q50 -1 96.5 -15t71.5 -34q-22 -51 -38 -124q-6 -6 -17 -4.5t-15 8.5q7 55 -18.5 92.5
t-92.5 37.5q-56 0 -89 -34t-33 -81q0 -30 19.5 -60.5t36 -44.5t41.5 -32q114 -81 114 -192q0 -92 -67 -150.5t-181 -58.5zM453 793l140 73q9 0 14 -5.5t4 -13.5l-164 -134q-28 -23 -49 0l-117 136q0 15 21 17l114 -73q17 -10 37 0z" />
    <glyph glyph-name="scaron" unicode="&#x161;" horiz-adv-x="290" 
d="M86 -14q-32 0 -56 19.5t-24 45.5q0 18 11 33t27 15q10 0 22 -14q42 -45 76 -45q16 0 28 10.5t12 25.5q0 7 -1.5 14t-5.5 15l-6.5 13t-9 14.5t-8.5 12t-11 13.5l-8 10q-42 54 -42 95q0 57 58 107q44 38 90 38q34 0 57 -21t23 -48q0 -18 -11.5 -30t-20.5 -12q-13 0 -22 12
q-21 25 -36 34t-34 9q-15 0 -24.5 -9.5t-9.5 -21.5q0 -15 7 -28.5t25 -35t19 -22.5q24 -32 34 -55.5t9 -50.5q0 -57 -56 -103q-48 -40 -112 -40zM215 477l-67 198q6 15 25 13l72 -119q9 -13 14.5 -12.5t17.5 12.5l115 121q21 2 21 -18l-144 -194q-17 -24 -32 -24
q-14 0 -22 23z" />
    <glyph glyph-name="Ydieresis" unicode="&#x178;" horiz-adv-x="588" 
d="M382 32l36 -6q5 -3 3.5 -14t-7.5 -15q-92 3 -148 3q-66 0 -142 -3q-6 4 -5.5 15t7.5 14l38 6q34 2 47.5 20.5t36.5 91.5l16 51q12 40 14 63t-5 63q-3 19 -22.5 114.5t-24.5 122.5q-8 38 -18 52.5t-35 18.5l-26 5q-6 6 -4.5 15.5t9.5 13.5q50 -2 65 -2q20 -1 58 -1
q70 0 122 4q7 -4 7 -14.5t-6 -15.5l-33 -6q-27 -4 -34 -12.5t-3 -31.5q27 -144 52 -262l138 175q49 60 75 100q7 11 8 16t-4 9t-19 7l-25 5q-7 5 -6.5 15t8.5 14q66 -3 111 -3q56 0 99 3q6 -4 5.5 -14.5t-7.5 -14.5l-25 -5q-31 -6 -52.5 -20t-56.5 -53q-46 -50 -180 -216
q-28 -36 -40 -57t-29 -72l-21 -67q-23 -68 -19 -88t42 -24zM382 815q25 0 39 -16t10 -41q-3 -24 -20.5 -40t-41.5 -16t-37.5 16t-9.5 41q4 24 21 40t39 16zM582 815q25 0 39 -16t10 -41q-3 -24 -20.5 -40t-41.5 -16t-37.5 16t-9.5 41q4 24 21 40t39 16z" />
    <glyph glyph-name="Zcaron" unicode="&#x17d;" horiz-adv-x="627" 
d="M243 39h106q118 4 150 20q44 23 94 99q4 5 15.5 2t12.5 -10q-11 -36 -35 -85t-40 -68q-68 2 -102 2q-34 1 -103 1h-246q-75 0 -100 -3q-12 3 -8 19q34 25 134 130l419 444q18 20 15.5 25.5t-26.5 5.5h-142q-67 0 -101 -16q-39 -20 -89 -91q-7 -5 -17.5 -1t-11.5 13
q43 87 69 160q6 6 20 2q2 -18 16 -23t70 -5h284q61 0 100 3q12 -3 7 -19q-36 -25 -206 -207l-307 -326q-42 -44 -42 -58t64 -14zM508 793l140 73q9 0 14 -5.5t4 -13.5l-164 -134q-28 -23 -49 0l-117 136q0 15 21 17l114 -73q17 -10 37 0z" />
    <glyph glyph-name="zcaron" unicode="&#x17e;" horiz-adv-x="423" 
d="M233 400q31 0 72 -15q38 -15 65 -15q30 0 56 34q14 2 24.5 -8.5t7.5 -25.5q-172 -138 -310 -267v-4q44 2 108 -32q51 -27 74 -27q16 0 28 9.5t12 23.5q0 8 -8.5 29t-8.5 29q0 15 7.5 23t17.5 8q24 0 39 -19.5t15 -39.5q0 -44 -52 -89q-42 -36 -96 -36q-38 0 -94 28
q-60 30 -84 30q-38 0 -56 -50q-27 -3 -38.5 8.5t-11.5 25.5q0 21 56 69q31 26 112 94t127 108q10 8 9.5 12t-12.5 8q-67 24 -124 24q-17 0 -25.5 -8.5t-8.5 -17.5q0 -10 10 -23.5t10 -19.5q0 -10 -10 -19t-26 -9q-20 -1 -33 11.5t-13 29.5q0 35 50 79q48 42 111 42zM267 477
l-67 198q6 15 25 13l72 -119q9 -13 14.5 -12.5t17.5 12.5l115 121q21 2 21 -18l-144 -194q-17 -24 -32 -24q-14 0 -22 23z" />
    <glyph glyph-name="florin" unicode="&#x192;" 
d="M474 358h-117q-7 -24 -35 -129t-31 -117q-31 -109 -75 -165q-20 -26 -57 -47.5t-80 -21.5q-37 0 -60.5 18.5t-23.5 45.5q0 38 33 48q16 5 27 -16q31 -53 62 -53q13 0 23 16t23 65q5 20 45 182.5t43 173.5h-96q-14 27 9 40h99q26 101 64 158q68 102 176 102q47 0 75 -22.5
t28 -57.5q0 -30 -17 -47t-33 -17q-17 0 -22 24q-7 42 -22.5 62t-31.5 20q-31 0 -61 -64q-26 -55 -50 -158h115q7 -7 4.5 -20.5t-14.5 -19.5z" />
    <glyph glyph-name="circumflex" unicode="&#x2c6;" horiz-adv-x="380" 
d="M361 656l67 -198q-6 -15 -25 -13l-72 119q-9 13 -14.5 12.5t-17.5 -12.5l-115 -121q-21 -2 -21 18l144 194q17 24 32 24q14 0 22 -23z" />
    <glyph glyph-name="caron" unicode="&#x2c7;" horiz-adv-x="380" 
d="M290 477l-67 198q6 15 25 13l72 -119q9 -13 14.5 -12.5t17.5 12.5l115 121q21 2 21 -18l-144 -194q-17 -24 -32 -24q-14 0 -22 23z" />
    <glyph glyph-name="breve" unicode="&#x2d8;" horiz-adv-x="380" 
d="M315 485q-66 0 -96.5 37.5t-13.5 108.5q14 10 26 0q-5 -40 22.5 -62.5t69.5 -22.5q85 0 132 85q12 10 26 0q-26 -146 -166 -146z" />
    <glyph glyph-name="dotaccent" unicode="&#x2d9;" horiz-adv-x="380" 
d="M325 593q25 0 39 -16t10 -41q-3 -24 -20.5 -40t-41.5 -16t-37.5 16t-9.5 41q4 24 21 40t39 16z" />
    <glyph glyph-name="ring" unicode="&#x2da;" horiz-adv-x="380" 
d="M216 568q0 42 30.5 73t78.5 31t78.5 -31t30.5 -73t-30.5 -73.5t-78.5 -31.5t-78.5 31.5t-30.5 73.5zM273 568q0 -29 14 -48t38 -19t38 19t14 48t-14 47.5t-38 18.5t-38 -18.5t-14 -47.5z" />
    <glyph glyph-name="ogonek" unicode="&#x2db;" horiz-adv-x="380" 
d="M186 20h45q-102 -80 -108 -146q-2 -27 12.5 -43t43.5 -16t49 15q9 -3 9 -17q-39 -52 -109 -52q-36 0 -59 21.5t-23 56.5q0 84 140 181z" />
    <glyph glyph-name="tilde" unicode="&#x2dc;" horiz-adv-x="380" 
d="M270 567h111q45 0 62 16q19 19 26 36q4 4 12 3t11 -7q-17 -56 -44 -85q-18 -18 -57 -18h-111q-44 0 -66 -22q-16 -18 -28 -42q-14 -9 -23 6q16 63 42 91q21 22 65 22z" />
    <glyph glyph-name="hungarumlaut" unicode="&#x2dd;" horiz-adv-x="380" 
d="M140 456l90 188q11 25 27 25q13 0 35 -15q24 -18 24 -33q0 -14 -22 -38l-132 -143q-19 -1 -22 16zM330 456l90 188q11 25 27 25q13 0 35 -15q24 -18 24 -33q0 -14 -22 -38l-132 -143q-19 -1 -22 16z" />
    <glyph glyph-name="endash" unicode="&#x2013;" horiz-adv-x="500" 
d="M34 236h500l-20 -61h-500z" />
    <glyph glyph-name="emdash" unicode="&#x2014;" horiz-adv-x="1000" 
d="M34 236h1000l-19 -61h-1001z" />
    <glyph glyph-name="quoteleft" unicode="&#x2018;" horiz-adv-x="242" 
d="M259 457q-32 0 -54 26t-22 66q0 53 49 96t119 60q7 -3 9 -11.5t-1 -14.5q-38 -14 -67 -40.5t-29 -59.5q0 -26 32 -42q18 -7 18 -28t-16 -36.5t-38 -15.5z" />
    <glyph glyph-name="quoteright" unicode="&#x2019;" horiz-adv-x="242" 
d="M340 608q0 -53 -49 -96t-119 -60q-7 3 -9 11.5t1 14.5q38 14 67 40.5t29 59.5q0 26 -32 42q-18 7 -18 28t16 36.5t38 15.5q32 0 54 -26t22 -66z" />
    <glyph glyph-name="quotesinglbase" unicode="&#x201a;" horiz-adv-x="242" 
d="M82 114q32 0 54 -26t22 -66q0 -53 -49 -96t-119 -60q-7 3 -9 11.5t1 14.5q38 14 67 40.5t29 59.5q0 26 -32 42q-18 7 -18 28t16 36.5t38 15.5z" />
    <glyph glyph-name="quotedblleft" unicode="&#x201c;" horiz-adv-x="430" 
d="M259 457q-32 0 -54 26t-22 66q0 53 49 96t119 60q7 -3 9 -11.5t-1 -14.5q-38 -14 -67 -40.5t-29 -59.5q0 -26 32 -42q18 -7 18 -28t-16 -36.5t-38 -15.5zM447 457q-32 0 -54 26t-22 66q0 53 49 96t119 60q7 -3 9 -11.5t-1 -14.5q-38 -14 -67 -40.5t-29 -59.5
q0 -26 32 -42q18 -7 18 -28t-16 -36.5t-38 -15.5z" />
    <glyph glyph-name="quotedblright" unicode="&#x201d;" horiz-adv-x="430" 
d="M264 700q32 0 54 -26t22 -66q0 -53 -49 -96t-119 -60q-7 3 -9 11.5t1 14.5q38 14 67 40.5t29 59.5q0 26 -32 42q-18 7 -18 28t16 36.5t38 15.5zM452 700q32 0 54 -26t22 -66q0 -53 -49 -96t-119 -60q-7 3 -9 11.5t1 14.5q38 14 67 40.5t29 59.5q0 26 -32 42q-18 7 -18 28
t16 36.5t38 15.5z" />
    <glyph glyph-name="quotedblbase" unicode="&#x201e;" horiz-adv-x="430" 
d="M82 114q32 0 54 -26t22 -66q0 -53 -49 -96t-119 -60q-7 3 -9 11.5t1 14.5q38 14 67 40.5t29 59.5q0 26 -32 42q-18 7 -18 28t16 36.5t38 15.5zM270 114q32 0 54 -26t22 -66q0 -53 -49 -96t-119 -60q-7 3 -9 11.5t1 14.5q38 14 67 40.5t29 59.5q0 26 -32 42q-18 7 -18 28
t16 36.5t38 15.5z" />
    <glyph glyph-name="dagger" unicode="&#x2020;" horiz-adv-x="480" 
d="M189 -127h-48l40 137q35 119 35 252q30 28 49 65.5t39 104.5q-32 0 -71 -16t-55 -16q-23 0 -35 16t-7 38q11 45 61 45q16 0 51 -16t67 -16q14 49 9 93t-1 57q17 59 71 59q29 0 42 -19.5t5 -47.5q-3 -11 -33.5 -52.5t-44.5 -89.5q32 0 71 16t54 16q23 0 36 -16t8 -37
q-10 -46 -61 -46q-13 0 -50 16t-69 16q-19 -67 -21.5 -103t11.5 -67q-77 -129 -113 -252z" />
    <glyph glyph-name="daggerdbl" unicode="&#x2021;" horiz-adv-x="456" 
d="M432 676q32 0 42 -18t5 -42q-3 -11 -16.5 -28t-32 -47t-30.5 -69q35 0 75.5 15t55.5 15q23 0 34 -14.5t5 -37.5q-11 -42 -59 -42q-14 0 -50 15t-71 15q-33 -111 -4 -151q-28 -20 -46.5 -54.5t-37.5 -97.5q35 0 75.5 15t55.5 15q23 0 34 -14.5t5 -37.5q-11 -42 -59 -42
q-14 0 -50 15t-71 15q-16 -57 -13 -107t0 -60q-16 -58 -69 -58q-28 0 -41 18.5t-6 43.5q4 14 35 60.5t48 102.5q-35 0 -75.5 -15t-55.5 -15q-23 0 -33 14.5t-5 35.5q10 44 56 44q13 0 50.5 -15t72.5 -15q33 117 4 152q29 22 48 57t36 94q-35 0 -75.5 -15t-55.5 -15
q-23 0 -33 14.5t-5 35.5q10 44 56 44q13 0 50.5 -15t72.5 -15q11 40 12 68.5t-3 47t-2 29.5q4 25 22.5 42t48.5 17z" />
    <glyph glyph-name="bullet" unicode="&#x2022;" horiz-adv-x="400" 
d="M265 485q62 0 105.5 -43t43.5 -106t-43 -105.5t-106 -42.5t-106 42.5t-43 105.5t43.5 106t105.5 43z" />
    <glyph glyph-name="ellipsis" unicode="&#x2026;" horiz-adv-x="1000" 
d="M469 122q25 0 39.5 -16.5t14.5 -43.5q0 -33 -20.5 -54.5t-49.5 -21.5q-26 0 -41 15.5t-15 42.5q0 32 20.5 55t51.5 23zM802 122q25 0 39.5 -16.5t14.5 -43.5q0 -33 -20.5 -54.5t-49.5 -21.5q-26 0 -41 15.5t-15 42.5q0 32 20.5 55t51.5 23zM136 122q25 0 39.5 -16.5
t14.5 -43.5q0 -33 -20.5 -54.5t-49.5 -21.5q-26 0 -41 15.5t-15 42.5q0 32 20.5 55t51.5 23z" />
    <glyph glyph-name="perthousand" unicode="&#x2030;" horiz-adv-x="1212" 
d="M628 -14q-59 0 -89.5 35t-30.5 92q0 91 58.5 167.5t141.5 76.5q58 0 88 -35t30 -96q0 -86 -57.5 -163t-140.5 -77zM583 83q0 -63 42 -63q36 0 67 50q23 39 41 98.5t18 95.5q0 59 -42 59q-36 0 -67 -48q-25 -38 -42 -96t-17 -96zM264 269q-59 0 -89.5 35t-30.5 92
q0 91 58.5 167.5t141.5 76.5q58 0 88 -35t30 -96q0 -86 -57.5 -163t-140.5 -77zM219 366q0 -63 42 -63q36 0 67 50q23 39 41 98.5t18 95.5q0 59 -42 59q-36 0 -67 -48q-25 -38 -42 -96t-17 -96zM978 -14q-59 0 -89.5 35t-30.5 92q0 91 58.5 167.5t141.5 76.5q58 0 88 -35
t30 -96q0 -86 -57.5 -163t-140.5 -77zM933 83q0 -63 42 -63q36 0 67 50q23 39 41 98.5t18 95.5q0 59 -42 59q-36 0 -67 -48q-25 -38 -42 -96t-17 -96zM232 -40q-13 -1 -22.5 5.5t-11.5 18.5q51 60 269 340t259 330q11 2 22.5 -5.5t11.5 -18.5q-51 -60 -269 -340t-259 -330z
" />
    <glyph glyph-name="guilsinglleft" unicode="&#x2039;" horiz-adv-x="276" 
d="M158 194l42 -154q-2 -6 -8.5 -9.5t-13.5 -2.5q-70 113 -104 162q-10 16 8 34q26 24 54 51t61 59t51 50q17 3 20 -14l-106 -150q-7 -12 -4 -26z" />
    <glyph glyph-name="guilsinglright" unicode="&#x203a;" horiz-adv-x="276" 
d="M68 42l107 150q9 11 5 26l-45 154q8 15 24 12q70 -113 104 -162q10 -16 -8 -34q-26 -24 -54 -51t-61 -59t-51 -50q-16 -3 -21 14z" />
    <glyph glyph-name="fraction" unicode="&#x2044;" horiz-adv-x="400" 
d="M444 634q-307 -379 -537 -668q-15 0 -23.5 8t-7.5 22q278 343 532 664q32 0 36 -26z" />
    <glyph glyph-name="fraction" unicode="&#x2215;" horiz-adv-x="400" 
d="M444 634q-307 -379 -537 -668q-15 0 -23.5 8t-7.5 22q278 343 532 664q32 0 36 -26z" />
    <glyph glyph-name="Euro" unicode="&#x20ac;" horiz-adv-x="630" 
d="M130 383h43q49 120 159 188t242 68q66 0 166 -32q-18 -44 -45 -137q-4 -5 -16 -5t-13 7q10 66 -14.5 98t-87.5 32q-90 0 -164 -63.5t-112 -155.5h319q6 -28 -18 -40h-316q-10 -28 -14 -53h303q2 -10 -3.5 -22t-14.5 -18h-291q-2 -18 -2 -28q-2 -102 40.5 -151.5
t114.5 -49.5q58 0 103 33.5t91 98.5q7 4 15 3t12 -7q-19 -63 -65 -142q-11 -1 -35 -6.5t-35 -7.5q-61 -9 -91 -9q-122 0 -194 64t-69 184q0 12 1 18h-59q-3 7 2 20.5t16 19.5h46q3 20 13 53h-45q-4 7 1 21t17 19z" />
    <glyph glyph-name="trademark" unicode="&#x2122;" horiz-adv-x="1070" 
d="M254 361v240q0 22 -3 26t-19 4h-27q-52 0 -71 -16q-16 -14 -31 -42q-4 -3 -11.5 -0.5t-8.5 8.5q14 37 24 97q6 10 16 2q-1 -13 11 -16.5t43 -3.5h263q43 0 49 14q3 2 9.5 1t7.5 -5q-5 -15 -8.5 -46.5t-1.5 -49.5q-8 -10 -21 -2q-4 29 -16 45q-12 14 -60 14h-44
q-16 0 -19 -3.5t-3 -26.5v-240q0 -50 5.5 -63t33.5 -17l19 -3q4 -3 3.5 -11.5t-4.5 -10.5q-58 2 -98 2q-28 0 -100 -2q-6 3 -6.5 10.5t5.5 11.5l24 4q28 4 33.5 16.5t5.5 62.5zM518 278l17 4q22 5 30.5 13t10.5 33q0 5 2 25.5t4.5 53t3.5 59.5q3 63 3 122q0 36 -37 48l-13 4
q-5 2 -4.5 11t7.5 11q24 -2 59 -2q38 0 78 2q0 -39 44 -130l58 -113q4 -10 26 -50q7 10 34 59l46 89q53 102 66 145q28 -2 59 -2q44 0 70 2q5 -3 5.5 -10.5t-3.5 -11.5l-15 -5q-25 -8 -33 -17.5t-8 -34.5q0 -8 0.5 -41t0.5 -48q0 -100 5 -160q0 -1 0.5 -7t0.5 -7t1 -6
t1.5 -6t1.5 -5t2.5 -5t3.5 -4t5 -4.5t6.5 -3t7.5 -2.5l22 -6q4 -4 3.5 -11.5t-6.5 -10.5q-56 2 -84 2q-38 0 -88 -2q-7 2 -7 10t5 12l21 5q15 4 21 13.5t6 39.5l-1 208q0 19 -3 21q-1 0 -7 -10.5t-15.5 -28t-14.5 -26.5l-55 -108q-43 -79 -67 -138q-5 -5 -17 -1
q-16 51 -55 123l-58 117q-7 15 -21 40t-17 27q-1 -4 -4 -87q-1 -37 -1 -129q0 -39 4 -47t25 -13l26 -6q4 -3 3.5 -11.5t-6.5 -10.5q-54 2 -74 2q-21 0 -79 -2q-7 2 -7.5 10.5t5.5 11.5z" />
    <glyph glyph-name="minus" unicode="&#x2212;" 
d="M459 174h-385v63h385v-63z" />
    <glyph glyph-name="fi" unicode="&#xfb01;" horiz-adv-x="523" 
d="M358 350h-104q-19 -55 -58.5 -197t-52.5 -183q-39 -121 -77 -170q-20 -25 -57 -47t-79 -22q-35 0 -59.5 20t-24.5 47q0 20 11.5 33.5t26.5 13.5q19 0 31 -20q32 -50 58 -50q24 0 49 85q15 52 60 223t72 267h-89q-7 11 -3 25t15 19h89q42 137 89 204q82 117 209 117
q55 0 89 -26.5t34 -63.5q0 -24 -19 -39.5t-41 -15.5q-36 0 -38 32q-3 77 -52 77q-23 0 -43 -16t-44 -55q-34 -56 -84 -214h68q46 0 98.5 9t57.5 9q9 0 17 -10t5 -20q0 -21 -8 -42l-104 -265q-8 -17 4 -17t45 22t55 46q8 0 13 -6t3 -14q-22 -38 -83.5 -79t-112.5 -41
q-13 0 -23.5 10t-10.5 20q0 15 11 42l95 258q8 24 1.5 29t-39.5 5z" />
    <glyph glyph-name="fl" unicode="&#xfb02;" horiz-adv-x="524" 
d="M409 350h-155q-19 -55 -58.5 -197t-52.5 -183q-39 -121 -77 -170q-20 -25 -57 -47t-79 -22q-35 0 -59.5 20t-24.5 47q0 20 11.5 33.5t26.5 13.5q19 0 31 -20q32 -50 58 -50q24 0 49 85q15 52 60 223t72 267h-89q-6 11 -1.5 25t13.5 19h91q41 139 89 206q83 115 205 115
q58 0 87 -29q12 5 28.5 12t26.5 11t16 6q9 -2 9 -8q-25 -64 -54 -151l-161 -474q-14 -40 4 -40q27 0 109 96q21 0 18 -18q-28 -54 -74.5 -94t-113.5 -40q-27 0 -39.5 11t-12.5 25q0 23 18 74zM266 394h158l69 198q12 33 1 60t-41 27q-52 0 -97 -66q-48 -68 -90 -219z" />
    </font>
</defs>
</svg>
